<?xml version="1.0" encoding="UTF-8"?>
<svg id="_圖層_1" data-name="圖層_1" xmlns="http://www.w3.org/2000/svg" version="1.1" xmlns:xlink="http://www.w3.org/1999/xlink" viewBox="0 0 118.88 56.34">
  <!-- Generator: Adobe Illustrator 30.5.1, SVG Export Plug-In . SVG Version: 2.1.4 Build 3)  -->
  <defs>
    <style>
      .st0 {
        fill: #807e7e;
      }

      .st1 {
        fill: #a6242c;
      }

      .st2 {
        fill: #bcb9b8;
      }

      .st3 {
        fill: #a9d9d4;
      }

      .st4 {
        fill: #fff;
      }

      .st5 {
        fill: #c97434;
      }

      .st6 {
        fill: #71534c;
      }

      .st7 {
        fill: #908e8d;
      }

      .st8 {
        fill: #c0451e;
      }

      .st9 {
        clip-path: url(#clippath-1);
      }

      .st10 {
        fill: #b76f31;
      }

      .st11 {
        fill: #b5b7b9;
        opacity: .53;
      }

      .st12 {
        fill: #d14718;
      }

      .st13 {
        fill: #a62933;
      }

      .st14 {
        fill: #dedbda;
      }

      .st15 {
        fill: #f18d23;
      }

      .st16 {
        fill: #f9ce8a;
      }

      .st17 {
        fill: #c8731c;
      }

      .st18 {
        fill: #676665;
      }

      .st19 {
        clip-path: url(#clippath);
      }

      .st20 {
        fill: #df8427;
      }
    </style>
    <clipPath id="clippath">
      <path class="st4" d="M87.28,32.63c.53.02.93-.28,1.08-.4,3.2-2.5-.44-14.76-4.16-14.97-.55-.03-.92.21-1.01.27-3.05,2.04.67,15,4.09,15.1Z"/>
    </clipPath>
    <clipPath id="clippath-1">
      <path class="st4" d="M94.06,31.46c.53.02.93-.28,1.08-.4,3.2-2.5-.44-14.76-4.16-14.97-.55-.03-.92.21-1.01.27-3.05,2.04.67,15,4.09,15.1Z"/>
    </clipPath>
  </defs>
  <g>
    <g>
      <path class="st7" d="M3.32,38.89c-.27,2.29-.27,5.09.49,8.19.22.88.48,1.71.76,2.49.69-.08,1.39-.15,2.08-.23-.59-2.16-1.06-4.64-1.21-7.4-.06-1.07-.07-2.11-.03-3.09l-2.09.04Z"/>
      <path class="st7" d="M20.67,38.47c-.04,2.62,0,5.31.1,8.06.03.87.08,1.73.12,2.58l2.5.05c0-2.37-.08-4.82-.23-7.34-.07-1.15-.15-2.28-.24-3.39-.75.01-1.5.02-2.26.03Z"/>
      <path class="st7" d="M23.63,42.81c4.15.11,8.39.18,12.73.21,1.36.01,2.72.02,4.05.02l.11-1.28c-3.73-.08-7.58-.12-11.56-.13-1.81,0-3.6,0-5.37.01.01.39.03.78.04,1.17Z"/>
      <path class="st7" d="M23.77,46.05c4.15.1,8.39.17,12.72.2,1.36,0,2.71.01,4.05.02l.11-1.28c-3.73-.07-7.58-.11-11.56-.12-1.81,0-3.6,0-5.37.02.01.39.03.78.04,1.17Z"/>
      <path class="st7" d="M5.38,49.22c13.34.1,26.87.18,40.56.21,4.29.01,8.53.02,12.71.02.02-.42.04-.85.07-1.27-11.7-.08-23.88-.13-36.53-.14-5.79,0-11.53,0-17.21,0,.13.39.27.79.4,1.18Z"/>
      <path class="st7" d="M6.63,46c3.32.07,6.73.1,10.2.09,1.09,0,2.18,0,3.25-.02l.11-1.29c-2.99-.04-6.09-.05-9.28-.02-1.45.01-2.89.03-4.3.06,0,.39,0,.78.01,1.18Z"/>
      <path class="st7" d="M43.97,43.23c3.38.08,6.83.12,10.36.12,1.11,0,2.21,0,3.31,0l.12-1.27c-3.04-.05-6.18-.07-9.42-.05-1.48,0-2.93.03-4.37.05,0,.39,0,.77.01,1.16Z"/>
      <path class="st7" d="M44.03,46.44c3.38.07,6.83.11,10.36.11,1.11,0,2.21,0,3.3-.01l.12-1.27c-3.04-.04-6.18-.06-9.42-.03-1.48.01-2.93.03-4.37.05,0,.39,0,.77.01,1.16Z"/>
      <path class="st7" d="M40.92,38.72c-.1,2.6-.14,5.27-.11,8,.01.86.03,1.72.05,2.56l2.45.09c.05-2.35.05-4.78-.03-7.28-.04-1.14-.09-2.26-.15-3.37-.74,0-1.48,0-2.22,0Z"/>
      <path class="st7" d="M58.08,39.6c.21,1.27.37,2.66.45,4.15.11,2.17,0,4.15-.19,5.91.7-.05,1.4-.09,2.1-.14.16-2.16.19-4.54-.03-7.08-.08-1-.2-1.96-.33-2.88l-2,.04Z"/>
      <path class="st7" d="M59.4,53.16h-.19c-.66.02-1.2-.42-1.2-.97v-1.67c0-.55.53-1.02,1.19-1.03h.19c.66-.02,1.19.42,1.2.97v1.66c0,.55-.53,1.02-1.18,1.03Z"/>
      <path class="st7" d="M5.77,52.99h-.2c-.69.02-1.25-.43-1.26-.99l-.02-1.7c0-.57.55-1.04,1.24-1.06h.2c.69-.02,1.25.43,1.26.99l.02,1.7c0,.56-.55,1.04-1.24,1.06Z"/>
      <path class="st7" d="M6.58,42.75c3.33.07,6.73.11,10.2.11,1.1,0,2.18,0,3.26-.01l.11-1.29c-2.99-.04-6.09-.06-9.28-.03-1.45.01-2.89.03-4.31.06,0,.39,0,.78.01,1.18Z"/>
    </g>
    <g>
      <path class="st2" d="M2.86,11.2c-1.2.08-2.15.83-2.27,1.79C.09,16.93-.16,21.45.11,26.42c.25,4.48.87,8.53,1.66,12.09.21.95,1.26,1.63,2.48,1.6,10.2-.21,20.62-.29,31.22-.22,8.7.06,17.14.22,25.32.46,1.32.04,2.44-.8,2.51-1.88.15-2.36.24-4.79.27-7.29.06-5.97-.26-11.58-.83-16.8-.1-.88-.92-1.6-2-1.73-4.82-.59-9.88-1.08-15.19-1.45-15.48-1.08-29.85-.87-42.7,0Z"/>
      <path class="st14" d="M6.9,17.29c-.1,1.95-.13,4.02-.07,6.19.11,3.97.52,7.59,1.07,10.81,14.91.27,29.64.53,44.19.79.04-5.59.09-11.18.13-16.78-8.28-.66-17.14-1.09-26.55-1.21-6.46-.08-12.72,0-18.77.21Z"/>
      <g>
        <path class="st0" d="M53.53,31.16l.08,2.81.03,1.01c2.29.09,4.58.18,6.86.27.08-.52.13-1.06.16-1.61.04-.76.02-1.5-.05-2.21-1.33-.07-2.75-.14-4.25-.19-.98-.03-1.92-.06-2.83-.08Z"/>
        <path class="st0" d="M53.57,26.87c.03.93.05,1.87.08,2.8l.03,1.01c2.29.09,4.57.19,6.84.28.08-.52.13-1.06.16-1.6.04-.76.02-1.49-.05-2.2-1.33-.07-2.75-.14-4.24-.2-.97-.04-1.92-.06-2.83-.08Z"/>
        <path class="st0" d="M53.62,22.6c.03.93.05,1.86.08,2.79l.03,1c2.28.09,4.56.19,6.83.28.08-.52.13-1.05.16-1.6.04-.75.02-1.48-.05-2.19-1.33-.08-2.74-.14-4.23-.2-.97-.04-1.91-.06-2.82-.09Z"/>
        <path class="st0" d="M53.66,18.34c.03.93.05,1.85.08,2.78l.03,1c2.28.1,4.55.19,6.81.29.08-.52.13-1.05.16-1.59.04-.75.02-1.48-.05-2.18-1.33-.08-2.74-.14-4.22-.2-.97-.04-1.91-.07-2.81-.09Z"/>
      </g>
      <path class="st18" d="M16.29,27.74c6.15.12,12.3.25,18.44.39,2.84.07,5.67.14,8.49.21.06-1.5.13-3,.19-4.5-3.86-.06-7.75-.13-11.66-.21-5.11-.1-10.21-.21-15.3-.34-.07.99-.13,2.02-.15,3.07,0,.46-.01.92,0,1.37Z"/>
      <path class="st18" d="M14.3,17.3v.54c.01.26.23.47.51.47,5.14,0,10.38.07,15.72.22,5.01.14,9.89.33,14.62.58.29.01.52-.21.52-.48v-.49c0-.25-.21-.45-.47-.47-4.79-.23-9.69-.42-14.7-.56-5.31-.15-10.54-.25-15.7-.29-.29,0-.52.22-.51.49Z"/>
      <path class="st18" d="M43.62,18.57l-.19,2.1,1.18.11.48-2.24-1.47.03Z"/>
      <path class="st18" d="M14.89,18.08l.35,1.64,1.24-.02-.02-1.46-1.58-.15Z"/>
      <path class="st18" d="M4.63,20.97c.01.7-.58,1.29-1.33,1.3s-1.36-.54-1.37-1.25c-.01-.7.59-1.29,1.33-1.3s1.36.54,1.37,1.25Z"/>
    </g>
  </g>
  <g>
    <g>
      <g>
        <g>
          <g>
            <path class="st17" d="M93.75,45.99l.79,4.53c.11.64.79,1,1.4.74,1.27-.54,2.66-.36,3.54.43.49.44.74,1,.86,1.5.18.74-.31,1.47-1.06,1.6l-6.56.96c-.54.08-1.04-.29-1.13-.82l-1.47-8.48c-.1-.58.31-1.12.89-1.17s1.05-.06,1.66-.13c.52-.05,1,.31,1.09.83Z"/>
            <path class="st17" d="M83.3,46.7l-.04,4.58c0,.65.6,1.12,1.24.98,1.34-.3,2.68.12,3.41,1.06.53.68.61,1.48.57,2.09-.03.53-.49.93-1.02.92l-6.71-.1c-.55,0-.99-.46-.99-1.01l.07-8.61c0-.57.48-1.02,1.04-.99.53.02.91.05,1.45.07s.97.47.97,1.01Z"/>
          </g>
          <g>
            <path class="st15" d="M83.84,7.48c-4.26.29-11.36,1.48-14.33,4.73-1.16,1.26-1.37,2.45-2.21,3.72-1.27,1.91-2.14,3.29-2.27,3.49-2.18,3.27-3.28,18.16,6.69,25.12,7.09,4.95,15.47,2.86,19.57,1.84,2.91-.72,6.29-1.74,9.44-4.67,4.95-4.61,4.63-12.06,4.52-14.55-.4-9.13-6.2-14.48-6.47-14.73-.96-.88-1.59-.95-2.6-1.51-4.22-2.35-7.3-3.78-12.34-3.44Z"/>
            <path class="st15" d="M78.79,11.91c.34-1.1-1.83-1.34-2.49-.63-.23.25-.2.82.04,1,.33.26,2.29.12,2.44-.38ZM70.49,19.62c1.14.18,1.11-2.38.54-2.5-1.17-.25-1.33,2.37-.54,2.5ZM94.89,16.49c.02.11.73,1.8.8,1.91.3.46.99.46,1.15-.01.18-.54-.53-2.6-1.14-2.7-.56-.1-.92.25-.82.81ZM66.77,25.94c.3.96,1.28.45,1.29-.44.01-.59-.08-2.25-.84-2.29-1.06-.06-.64,2.14-.46,2.73ZM94.27,25.26c-.31.15-.88,1.26-.88,1.6,0,.75.74,1.02,1.2.45.48-.59,1.02-2.67-.32-2.05ZM74.96,30.28c.04.61,1.63,1.81,2.25,1.4.69-.45-1.08-1.97-1.4-2.03-.43-.08-.88.16-.85.62ZM68.24,36.98c.25.29.66,1.23,1.14.8.23-.2-.22-.82-.31-1.08-.16-.43-.15-.92-.57-1.26-.28-.23-.73-.23-.96.07-.45.6.41,1.15.69,1.47ZM98.44,33.96c-.22.46-1.05,1.47-.86,1.89.42.64,1.09.17,1.46-.28.4-.48,1.8-3.03.67-3.22-.94-.16-.97.97-1.27,1.61ZM81.68,36.23c-.46.35-.36,1.01.21,1.17.43.12,2.11-.6,2.3-1.06.16-.38.1-.82-.36-.86-.34-.03-1.86.53-2.14.75ZM90.02,39.77c-.21.59-.34,1.56.61,1.27.38-.11,1.36-2.28,1.29-2.65-.05-.26-.23-.46-.51-.49-.75-.07-1.18,1.24-1.39,1.86ZM77.94,42.45c.48.43,3.33,2.13,3.24.59-.04-.75-.81-.67-1.32-.91-.4-.19-1.19-.81-1.54-.84-.76-.07-.96.64-.38,1.17Z"/>
            <g>
              <path class="st16" d="M99.71,32.36c-.94-.16-.97.97-1.27,1.61-.22.46-1.05,1.47-.86,1.89.42.64,1.09.17,1.46-.28.4-.48,1.8-3.03.67-3.22Z"/>
              <path class="st16" d="M78.32,41.28c-.76-.07-.96.64-.38,1.17.48.43,3.33,2.13,3.24.59-.04-.75-.81-.67-1.32-.91-.4-.19-1.19-.81-1.54-.84Z"/>
              <path class="st16" d="M92.62,38.35c-.59-.47-1.66.39-2.19.79-.49.38-1.14,1.12-.19,1.4.38.11,2.39-1.16,2.53-1.51.1-.25.06-.51-.16-.68Z"/>
              <path class="st16" d="M68.21,24.09c-1.06-.06-.64,2.14-.46,2.73.3.96,1.28.45,1.29-.44.01-.59-.08-2.25-.84-2.29Z"/>
              <path class="st16" d="M95.7,15.69c-.56-.1-.92.25-.82.81.02.11.73,1.8.8,1.91.3.46.99.46,1.15-.01.18-.54-.53-2.6-1.14-2.7Z"/>
              <path class="st16" d="M82.38,36.08c-.34-.03-1.86.53-2.14.75-.46.35-.36,1.01.21,1.17.43.12,2.11-.6,2.3-1.06.16-.38.1-.82-.36-.86Z"/>
              <path class="st16" d="M76.35,12.29c.33.26,2.29.12,2.44-.38.34-1.1-1.83-1.34-2.49-.63-.23.25-.2.82.04,1Z"/>
              <path class="st16" d="M101.05,26.39c.48-.59,1.02-2.67-.32-2.05-.31.15-.88,1.26-.88,1.6,0,.75.74,1.02,1.2.45Z"/>
              <path class="st16" d="M73.2,19c-1.17-.25-1.33,2.37-.54,2.5,1.14.18,1.11-2.38.54-2.5Z"/>
              <path class="st16" d="M67.55,35.5c-.45.6.41,1.15.69,1.47.25.29.66,1.23,1.14.8.23-.2-.22-.82-.31-1.08-.16-.43-.15-.92-.57-1.26-.28-.23-.73-.23-.96.07Z"/>
              <path class="st16" d="M76.33,30.54c-.43-.08-.88.16-.85.62.04.61,1.63,1.81,2.25,1.4.69-.45-1.08-1.97-1.4-2.03Z"/>
              <g>
                <path class="st4" d="M85.68,34.23c-.24.13-.39.44-.33.68.07.27.42.36.61.46.89.47,2.65.88,3.62.63.5-.13,2.17-1.09,1.42-1.67-.45-.35-.96.33-1.38.49-.85.33-1.7.11-2.07.02-1.05-.26-1.44-.84-1.88-.61Z"/>
                <path class="st10" d="M90.97,16.47c.48-.25.63-.74.67-.88.28-.91-.28-1.88-.43-1.85-.12.02.12.62-.17,1.37-.34.89-1.12,1.2-1.01,1.42.08.16.59.12.94-.06Z"/>
                <path class="st10" d="M84.31,17.86c.48-.25.63-.74.67-.88.28-.91-.28-1.88-.43-1.85-.12.02.12.62-.17,1.37-.34.89-1.12,1.2-1.01,1.42.08.16.59.12.94-.06Z"/>
                <g>
                  <g>
                    <path class="st4" d="M87.28,32.63c.53.02.93-.28,1.08-.4,3.2-2.5-.44-14.76-4.16-14.97-.55-.03-.92.21-1.01.27-3.05,2.04.67,15,4.09,15.1Z"/>
                    <g class="st19">
                      <path class="st20" d="M86,21.97s.58-.42,1.26-.27c2.26.48,3.67,6.39,1.74,7.95-.08.06-.63.49-1.3.36-2.21-.43-3.61-6.61-1.7-8.04Z"/>
                    </g>
                  </g>
                  <g>
                    <path class="st4" d="M94.06,31.46c.53.02.93-.28,1.08-.4,3.2-2.5-.44-14.76-4.16-14.97-.55-.03-.92.21-1.01.27-3.05,2.04.67,15,4.09,15.1Z"/>
                    <g class="st9">
                      <path class="st20" d="M93.13,21.16s.57-.41,1.2-.26c2.15.5,3.26,6.52,1.44,7.74-.46.31-.95.22-1.02.2-2.14-.43-3.45-6.32-1.62-7.68Z"/>
                    </g>
                  </g>
                </g>
              </g>
            </g>
          </g>
        </g>
        <path class="st13" d="M100.99,38.69c.29.36.71.98.92,1.87,0,0,.3,1.23-.06,2.65-1.04,4.16-21.98,5.93-22.26,3.98-.01-.09-.04-.25.02-1.43,0,0,.01-.1,0-1.21,0-1.36-.59-4.17-.77-5.03,4.04,1.21,10.51,2.44,17.81.62,1.58-.4,3.03-.89,4.34-1.43Z"/>
        <path class="st6" d="M83.32,5.73c.55-.93,1.48-2.12,2.99-2.83,2.03-.95,4.98-1,5.59.19.15.3.13.63.08.86.56.11,1.42.36,2.26.98,1.31.95,2.83,2.94,2.29,4.68-.55,1.78-3.24,3.11-6.2,2.2.09-.25.14-.49.17-.72.32-2.14-1.15-3.95-1.71-4.57,1.26,1.37,1.62,3.32.91,4.92-.85,1.94-3.13,3.06-5.39,2.52.17-.46.25-.88.27-1.24.19-2.61-2-4.54-2.44-4.92,2.13,2.01,2.54,4.9,1.31,6.7-1.02,1.49-2.84,1.77-3.28,1.82.21-.5.42-1.19.44-2.01.04-2.55-1.85-4.26-2.21-4.58.45.54,1.51,1.96,1.56,3.96.02.89.04,1.54-.37,2.11-1.06,1.45-3.32.04-7.74.88-1.88.35-2.79.86-3.44.3-.88-.75-.38-2.68-.17-3.48.45-1.74,2.02-8.14,8.13-10.96,1.37-.63,4.48-2.07,7.2-.7.73.37,1.25.85,1.59,1.21-.34.29-.76.72-1.15,1.31-.34.51-.55.99-.69,1.37Z"/>
        <path class="st13" d="M70.38,7.86c-.19-.09-.53-.2-.92-.14-1.11.19-1.5,1.65-1.56,1.87-.03.13-.34,1.33.15,1.62.15.09.34.07.51.03.19-.71.53-1.62,1.17-2.55.22-.31.44-.59.66-.83Z"/>
        <path class="st6" d="M67.59,9.9c-.13.47-.37,1.13-.83,1.83-.42.63-.83,1-1,1.16-1.33,1.28-2.01,3.34-2.45,4.71-.63,1.97-.49,3.13-1.66,4.3-.3.29-.83.82-1.35.7-1.16-.27-1.24-3.55-1.24-3.93-.01-.91.08-2.08,1.04-5.03,1.12-3.45,1.71-5.17,2.85-5.8,1.85-1.03,4.21-.08,5.23.41-.19.55-.39,1.11-.58,1.66Z"/>
        <path class="st13" d="M103.91,36.99c-5.97,3.08-10.79,3.59-14.18,3.43-4.98-.23-8.29-1.96-14.01-1-3.13.53-5.59,1.62-7.21,2.49.31.24.63.49.94.73,1.28-.82,3.21-1.83,5.71-2.3,4.01-.75,7.26.34,8.42.67,3.73,1.08,9.74,1.25,19.74-2.74.2-.43.4-.86.59-1.29Z"/>
        <path class="st8" d="M109.41,43.42c-2-.51-3.53-2.99-2.95-4.16.33-.66,1.02-.38,3.17-1.23,2.37-.94,2.75-1.78,4.26-1.76.36,0,1.46.03,2.38.81,1.11.94,1.61,2.7,1.06,3.92-.53,1.16-2.24,1.52-5.65,2.24-1.48.31-1.89.28-2.28.18Z"/>
      </g>
      <g>
        <rect class="st11" x="98.63" y="18.15" width="19.74" height="20.8" rx="4.79" ry="4.79" transform="translate(-2.26 10.67) rotate(-5.57)"/>
        <g>
          <path class="st5" d="M105.8,38.36c-2.09.34-2.1.28-4.18.62-.37.06-.72-.21-.78-.61,0,0-.04,0-.04,0-.06-.4.23-.79.6-.85,2.09-.34,2.1-.28,4.18-.62.37-.06.7.18.76.58,0,0,.05,0,.05,0,.06.4-.22.83-.59.88Z"/>
          <path class="st5" d="M111.66,37.73c-2.06.2-2.05.27-4.11.47-.4.04-.76-.26-.8-.66,0,0,.01,0,.01,0-.04-.4.24-.79.64-.83,2.06-.2,2.06-.12,4.12-.32.4-.04.7.21.74.61,0,0,.1,0,.1,0,.04.4-.31.7-.71.74Z"/>
          <path class="st5" d="M117.72,37.44c-2.11.09-2.12.01-4.23.1-.37.02-.69-.27-.71-.67,0,0-.02,0-.02,0-.02-.4.29-.73.66-.74,2.11-.09,2.11-.1,4.22-.18.37-.02.64.3.66.7,0,0,.06,0,.06,0,.02.4-.27.79-.65.81Z"/>
          <path class="st5" d="M105.63,36.61c-2.09.34-2.1.27-4.18.61-.37.06-.71-.17-.78-.57,0,0,.04,0,.04,0-.06-.4.14-.8.51-.86,2.09-.34,2.1-.27,4.19-.6.37-.06.69.19.75.59,0,0,.05,0,.05,0,.06.4-.21.79-.59.85Z"/>
          <path class="st5" d="M111.5,36.05c-2.06.2-2.05.25-4.11.45-.4.04-.76-.29-.8-.68,0,0-.05,0-.05,0-.04-.4.31-.74.71-.77,2.06-.2,2.06-.19,4.11-.4.4-.04.79.22.83.62,0,0,0,0,0,0,.04.4-.29.74-.69.78Z"/>
          <path class="st5" d="M117.55,35.72c-2.11.09-2.11.02-4.23.11-.37.02-.7-.28-.71-.68,0,0,.03,0,.03,0-.02-.4.24-.74.62-.76,2.11-.09,2.11-.07,4.23-.15.37-.02.72.28.74.68,0,0,0,0,0,0,.02.4-.29.79-.66.81Z"/>
          <path class="st5" d="M105.46,34.9c-2.09.34-2.1.29-4.18.62-.37.06-.72-.18-.78-.58,0,0-.02,0-.02,0-.06-.4.22-.72.59-.78,2.09-.34,2.09-.35,4.17-.68.37-.06.76.17.82.56,0,0,0,0,0,0,.06.4-.23.79-.6.85Z"/>
          <path class="st5" d="M111.33,34.34c-2.06.2-2.05.24-4.11.44-.4.04-.76-.27-.8-.67,0,0,.01,0,.01,0-.04-.4.25-.72.65-.75,2.06-.2,2.05-.22,4.11-.43.4-.04.71.24.75.64,0,0,.06,0,.06,0,.04.4-.27.73-.67.77Z"/>
          <path class="st5" d="M117.38,33.94c-2.11.09-2.11.15-4.22.24-.37.02-.7-.34-.72-.74,0,0,0,0,0,0-.02-.4.28-.73.65-.74,2.11-.09,2.11-.05,4.23-.14.37-.02.69.25.71.65,0,0,.05,0,.05,0,.02.4-.32.72-.69.74Z"/>
          <path class="st5" d="M105.29,33.18c-2.09.34-2.08.37-4.17.71-.37.06-.73-.27-.79-.66,0,0,0,0,0,0-.06-.4.19-.8.56-.86,2.09-.34,2.09-.3,4.18-.63.37-.06.73.2.79.6,0,0,0,0,0,0,.06.4-.2.78-.57.84Z"/>
          <path class="st5" d="M111.16,32.65c-2.06.2-2.05.24-4.11.44-.4.04-.72-.3-.76-.7,0,0-.02,0-.02,0-.04-.4.23-.76.63-.79,2.06-.2,2.06-.17,4.12-.37.4-.04.77.22.81.62,0,0-.03,0-.03,0,.04.4-.24.76-.64.8Z"/>
          <path class="st5" d="M117.21,32.22c-2.11.09-2.11.06-4.23.15-.37.02-.64-.26-.66-.66,0,0,0,0,0,0-.02-.4.22-.73.59-.75,2.11-.09,2.11-.12,4.22-.21.37-.02.65.33.67.73,0,0,0,0,0,0,.02.4-.23.72-.61.74Z"/>
          <path class="st5" d="M105.13,31.5c-2.09.34-2.09.29-4.18.63-.37.06-.72-.22-.78-.62,0,0-.04,0-.04,0-.06-.4.23-.79.6-.85,2.09-.34,2.1-.28,4.18-.61.37-.06.74.18.8.57,0,0,.01,0,.01,0,.06.4-.22.82-.59.88Z"/>
          <path class="st5" d="M111,30.95c-2.06.2-2.06.14-4.12.34-.4.04-.73-.22-.76-.61,0,0-.02,0-.02,0-.04-.4.26-.73.65-.77,2.06-.2,2.05-.23,4.11-.43.4-.04.78.26.82.66,0,0-.01,0-.01,0,.04.4-.26.78-.66.81Z"/>
          <path class="st5" d="M117.05,30.54c-2.11.09-2.11.08-4.22.17-.37.02-.66-.3-.68-.7,0,0-.02,0-.02,0-.02-.4.26-.78.63-.8,2.11-.09,2.11-.03,4.23-.12.37-.02.66.29.68.69,0,0,.03,0,.03,0,.02.4-.27.75-.64.77Z"/>
          <path class="st5" d="M104.96,29.76q-2.09.34-4.17.67c-.37.06-.71-.24-.77-.64,0,0-.03,0-.03,0-.06-.4.2-.78.57-.84,2.09-.34,2.09-.35,4.17-.68.37-.06.69.24.75.64,0,0,.05,0,.05,0,.06.4-.2.8-.57.86Z"/>
          <path class="st5" d="M110.83,29.21c-2.06.2-2.06.18-4.12.38-.4.04-.71-.24-.75-.64,0,0-.01,0-.01,0-.04-.4.23-.71.63-.75,2.06-.2,2.06-.19,4.11-.39.4-.04.71.21.75.61,0,0,.02,0,.02,0,.04.4-.23.75-.63.79Z"/>
          <path class="st5" d="M116.88,28.84c-2.11.09-2.11.03-4.23.12-.37.02-.68-.28-.7-.68,0,0-.03,0-.03,0-.02-.4.29-.79.66-.81,2.11-.09,2.11-.08,4.22-.16.37-.02.72.34.74.74,0,0,0,0,0,0,.02.4-.29.77-.67.79Z"/>
          <path class="st5" d="M104.79,28.01c-2.09.34-2.08.37-4.17.7-.37.06-.68-.24-.74-.64,0,0,0,0,0,0-.06-.4.15-.79.52-.85,2.09-.34,2.09-.35,4.17-.68.37-.06.74.26.8.65,0,0-.04,0-.04,0,.06.4-.17.75-.54.81Z"/>
          <path class="st5" d="M110.66,27.54c-2.06.2-2.06.21-4.11.41-.4.04-.75-.3-.79-.7,0,0-.04,0-.04,0-.04-.4.28-.74.68-.78,2.06-.2,2.06-.17,4.12-.37.4-.04.72.2.76.6,0,0,.06,0,.06,0,.04.4-.28.8-.68.84Z"/>
          <path class="st5" d="M116.71,27.12c-2.11.09-2.11.11-4.22.2-.37.02-.68-.34-.69-.74,0,0,.02,0,.02,0-.02-.4.23-.73.6-.75,2.11-.09,2.11-.1,4.22-.19.37-.02.71.3.73.7,0,0-.06,0-.06,0,.02.4-.23.76-.6.77Z"/>
          <path class="st5" d="M104.62,26.29c-2.09.34-2.09.3-4.18.64-.37.06-.71-.17-.77-.56,0,0,.05,0,.05,0-.06-.4.13-.8.5-.86,2.09-.34,2.09-.34,4.17-.68.37-.06.71.27.77.66,0,0,.05,0,.05,0,.06.4-.22.76-.59.82Z"/>
          <path class="st5" d="M110.49,25.76c-2.06.2-2.05.23-4.11.43-.4.04-.81-.25-.85-.65,0,0,.07,0,.07,0-.04-.4.23-.76.63-.79,2.06-.2,2.05-.22,4.11-.42.4-.04.73.28.77.68,0,0,.06,0,.06,0,.04.4-.29.74-.69.78Z"/>
          <path class="st5" d="M116.54,25.35c-2.11.09-2.11.15-4.22.24-.37.02-.66-.33-.68-.73,0,0-.07,0-.07,0-.02-.4.31-.74.68-.75,2.11-.09,2.11-.07,4.23-.15.37-.02.66.27.68.67,0,0,.06,0,.06,0,.02.4-.29.71-.67.73Z"/>
          <path class="st5" d="M104.45,24.58c-2.09.34-2.08.38-4.17.71-.37.06-.7-.25-.76-.65,0,0-.03,0-.03,0-.06-.4.18-.82.55-.88,2.09-.34,2.1-.28,4.18-.61.37-.06.71.2.77.6,0,0,.05,0,.05,0,.06.4-.24.77-.61.83Z"/>
          <path class="st5" d="M110.32,24.01c-2.06.2-2.05.28-4.11.48-.4.04-.72-.28-.76-.68,0,0,0,0,0,0-.04-.4.22-.81.62-.84,2.06-.2,2.07-.11,4.12-.31.4-.04.8.21.84.61,0,0-.05,0-.05,0,.04.4-.26.7-.66.74Z"/>
          <path class="st5" d="M116.38,23.71q-2.11.09-4.22.18c-.37.02-.68-.35-.7-.75,0,0-.04,0-.04,0-.02-.4.3-.79.67-.8,2.11-.09,2.11-.06,4.23-.15.37-.02.74.31.76.72,0,0-.06,0-.06,0,.02.4-.25.79-.62.8Z"/>
          <path class="st5" d="M104.29,22.9c-2.09.34-2.09.32-4.18.66-.37.06-.68-.24-.74-.63,0,0-.05,0-.05,0-.06-.4.2-.77.57-.83,2.09-.34,2.08-.39,4.17-.72.37-.06.76.26.82.66,0,0-.05,0-.05,0,.06.4-.16.79-.53.85Z"/>
          <path class="st5" d="M110.15,22.31c-2.06.2-2.06.18-4.12.38-.4.04-.74-.2-.78-.6,0,0,0,0,0,0-.04-.4.24-.74.64-.78,2.06-.2,2.05-.25,4.11-.45.4-.04.71.29.75.69,0,0,.05,0,.05,0,.04.4-.26.72-.66.76Z"/>
          <path class="st5" d="M116.21,21.95c-2.11.09-2.11.1-4.22.18-.37.02-.64-.31-.66-.71,0,0-.1,0-.1,0-.02-.4.32-.69.7-.7,2.11-.09,2.11-.18,4.22-.27.37-.02.7.34.72.74,0,0-.05,0-.05,0,.02.4-.22.74-.59.76Z"/>
        </g>
        <g>
          <path class="st1" d="M116.38,16.65c.04.43-.28.82-.71.86l-16.59,1.62c-.43.04-.82-.27-.86-.71l-.13-1.34c-.04-.43.28-.82.71-.86l16.59-1.62c.43-.04.82.27.86.71l.13,1.34Z"/>
          <rect class="st1" x="98.78" y="14.53" width="16.65" height="2.09" rx="1.05" ry="1.05" transform="translate(-1.01 10.47) rotate(-5.57)"/>
        </g>
      </g>
    </g>
    <g>
      <path class="st3" d="M67.4,4.93c.07-.43-4.68-2.38-5.88-.94-.39.46-.43,1.29-.08,1.75.49.65,1.65.46,1.94.42.87-.14,1-.51,2.08-.87,1.23-.4,1.92-.2,1.94-.36Z"/>
      <path class="st3" d="M69.31,4.31c.39-.21-.63-4.17-2.22-4.31-.48-.04-1.18.25-1.41.78-.16.38-.03.77,0,.83.29.78,1.19.72,2.41,1.61.9.65,1.07,1.16,1.22,1.09Z"/>
    </g>
    <path class="st12" d="M98.77,37.28c-1.39-.53-3.7.7-4.38,2.38-1.03,2.55,1.57,6.37,4.82,7.11,2.18.49,5.34-.24,6.12-2.47.57-1.62-.19-3.82-1.51-4.46-.93-.45-1.49.18-2.65-.31-1.41-.59-1.33-1.84-2.41-2.25Z"/>
  </g>
</svg>