<?xml version="1.0" encoding="UTF-8"?>
<svg id="_圖層_1" data-name="圖層_1" xmlns="http://www.w3.org/2000/svg" version="1.1" xmlns:xlink="http://www.w3.org/1999/xlink" viewBox="0 0 109.82 60.97">
  <!-- Generator: Adobe Illustrator 30.5.1, SVG Export Plug-In . SVG Version: 2.1.4 Build 3)  -->
  <defs>
    <style>
      .st0 {
        clip-path: url(#clippath-4);
      }

      .st1 {
        fill: #b25e23;
      }

      .st2 {
        fill: #fff;
      }

      .st3 {
        opacity: .17;
      }

      .st4 {
        opacity: .46;
      }

      .st5 {
        fill: #3f3b3a;
      }

      .st6 {
        fill: #71534c;
      }

      .st7 {
        opacity: .09;
      }

      .st7, .st8 {
        fill: none;
        stroke: #f8f8f8;
        stroke-linecap: round;
        stroke-linejoin: round;
        stroke-width: .42px;
      }

      .st9 {
        clip-path: url(#clippath-1);
      }

      .st10 {
        clip-path: url(#clippath-5);
      }

      .st11 {
        clip-path: url(#clippath-3);
      }

      .st12 {
        fill: #b76f31;
      }

      .st13 {
        fill: #d14718;
      }

      .st14 {
        fill: #a62933;
      }

      .st15 {
        clip-path: url(#clippath-2);
      }

      .st16 {
        fill: #f18d23;
      }

      .st17 {
        fill: #f9ce8a;
      }

      .st18 {
        fill: #c8731c;
      }

      .st19 {
        clip-path: url(#clippath);
      }

      .st20 {
        fill: #df8427;
      }
    </style>
    <clipPath id="clippath">
      <path class="st2" d="M18.28,45.22c-.5.14-.94-.05-1.11-.13-3.59-1.61-3.02-13.98.43-15.04.51-.16.92-.02,1.01.02,3.35,1.21,2.85,14.26-.34,15.15Z"/>
    </clipPath>
    <clipPath id="clippath-1">
      <path class="st2" d="M11.34,45.33c-.5.14-.94-.05-1.11-.13-3.59-1.61-3.02-13.98.43-15.04.51-.16.92-.02,1.01.02,3.35,1.21,2.85,14.26-.34,15.15Z"/>
    </clipPath>
    <clipPath id="clippath-2">
      <path class="st2" d="M39.68,46.6c-.44.12-.83-.05-.98-.11-3.17-1.42-2.66-12.36.38-13.29.45-.14.81-.02.89.01,2.96,1.07,2.52,12.61-.3,13.39Z"/>
    </clipPath>
    <clipPath id="clippath-3">
      <path class="st2" d="M33.55,46.69c-.44.12-.83-.05-.98-.11-3.17-1.42-2.66-12.36.38-13.29.45-.14.81-.02.89.01,2.96,1.07,2.52,12.61-.3,13.39Z"/>
    </clipPath>
    <clipPath id="clippath-4">
      <path class="st2" d="M80.44,34.94c-.58.07-1.04-.21-1.22-.32-3.75-2.39-1.1-16.16,2.94-16.78.59-.09,1.03.13,1.13.18,3.55,1.91.87,16.45-2.85,16.93Z"/>
    </clipPath>
    <clipPath id="clippath-5">
      <path class="st2" d="M72.91,34.39c-.58.07-1.04-.21-1.22-.32-3.75-2.39-1.1-16.16,2.94-16.78.59-.09,1.03.13,1.13.18,3.55,1.91.87,16.45-2.85,16.93Z"/>
    </clipPath>
  </defs>
  <g>
    <path class="st18" d="M11.08,49.52c.12.88.25,1.78.38,2.68.14.93.28,1.85.43,2.76-.31.05-.75.09-1.25.01-.88-.13-1.17-.47-1.91-.41-.25.02-.73.06-1.05.42-.27.31-.43.86-.22,1.2.3.51,1.27.33,3.1.29.86-.02,1.61,0,2.22.03.37.02.69-.28.69-.65,0-1.23,0-2.47-.02-3.72,0-.88-.02-1.76-.04-2.63h-2.35Z"/>
    <path class="st18" d="M17.61,49.81c-.04.81-.11,1.66-.22,2.55-.12,1.03-.27,1.99-.45,2.9.58.14,1.03.1,1.34.04.62-.13.81-.39,1.4-.4.2,0,.65,0,1.04.31.38.31.68.91.49,1.28-.17.34-.74.42-3.1.29-.84-.05-1.58-.1-2.18-.15-.36-.03-.63-.35-.59-.71.02-.23.05-.48.06-.76.05-.73.02-1.31,0-2.42-.02-.8-.06-1.78-.14-2.92h2.35Z"/>
    <path class="st20" d="M28.89,37.61c.05.51.19,1.5.1,2.7-.06.79-.29,1.7-.54,2.65-.22.81-.46,1.71-.89,2.55-.38.76-1.11,1.36-1.71,2.08-.66.79-1.46,1.39-2.29,2s-1.58,1.34-2.53,1.76-1.93.74-2.95.96-2.05.44-3.08.46-2.04-.39-3.05-.58-2.1-.16-3.06-.56-1.81-1.02-2.66-1.62c-.78-.55-1.37-1.32-2.02-2.01s-1.18-1.46-1.68-2.27-1.18-1.54-1.51-2.44-.3-1.89-.45-2.83S-.04,38.56,0,37.61c.04-.91.21-1.88.43-2.78s.81-1.69,1.19-2.53.62-1.78,1.14-2.54,1.26-1.38,1.9-2.04,1.23-1.42,1.98-1.96,1.73-.69,2.57-1.07,1.68-.64,2.59-.84,1.76-.58,2.71-.58c.95,0,1.81.48,2.67.67.92.2,1.83.25,2.65.63s1.58.92,2.31,1.46,1.42,1.14,2.04,1.81,1.18,1.39,1.69,2.15,1.2,1.46,1.58,2.28.34,1.85.59,2.71c.26.91.75,1.75.84,2.63Z"/>
    <g>
      <path class="st17" d="M27.19,39.19c-.65-.13-.38-.87-.42-1.36-.03-.35-.31-1.21-.08-1.44.43-.31.75.16.87.55.14.41.4,2.41-.38,2.25Z"/>
      <path class="st17" d="M15.6,28.05c-.51-.15-.46-.65.05-.85.42-.16,2.69-.54,2.24.43-.22.47-.69.23-1.08.26-.3.02-.97.23-1.21.16Z"/>
      <path class="st17" d="M23.22,33.52c-.51-.14-.45-1.1-.43-1.55.01-.43.17-1.09.72-.67.22.17.31,1.82.17,2.04-.1.16-.27.24-.45.19Z"/>
      <path class="st17" d="M3.9,36.95c-.7-.23.13-1.54.39-1.88.43-.55.94.03.73.61-.14.39-.61,1.43-1.12,1.27Z"/>
      <path class="st17" d="M20.41,48.96c-.38-.08-.53-.4-.32-.73.04-.06.93-.98,1-1.03.31-.22.76-.05.74.3-.02.39-.99,1.55-1.42,1.46Z"/>
      <path class="st17" d="M17.71,33.18c-.23-.07-1.07-.81-1.2-1.02-.21-.34.02-.74.43-.71.31.03,1.21.92,1.22,1.26,0,.29-.14.55-.45.46Z"/>
      <path class="st17" d="M7.05,46.29c.28-.08,1.51.5,1.48.86-.06.79-1.52.41-1.77-.22-.09-.22.08-.58.28-.64Z"/>
      <path class="st17" d="M22.62,41.17c.16.5-.01,1.98-.72,1.25-.17-.17-.25-1.04-.17-1.26.19-.48.73-.47.89.01Z"/>
      <path class="st17" d="M4.82,41.84c-.82-.13-.26-1.87.28-1.75.78.17.12,1.82-.28,1.75Z"/>
      <path class="st17" d="M7.19,29.08c-.14-.5.56-.64.82-.78.23-.12.73-.63.94-.23.1.19-.35.48-.47.62-.21.24-.33.56-.69.67-.24.08-.53-.04-.6-.29Z"/>
      <path class="st17" d="M11.06,34.93c-.3-.06-.53-.32-.39-.62.18-.39,1.51-.76,1.81-.34.33.46-1.19,1-1.42.96Z"/>
    </g>
    <g>
      <g>
        <path class="st2" d="M18.28,45.22c-.5.14-.94-.05-1.11-.13-3.59-1.61-3.02-13.98.43-15.04.51-.16.92-.02,1.01.02,3.35,1.21,2.85,14.26-.34,15.15Z"/>
        <g class="st19">
          <path class="st20" d="M19.57,34.44c-.56-.16-1.06.12-1.17.18-1.42.79-1.8,3.66-.56,5.54.69,1.05,2.16,2.2,2.98,1.78,1.52-.77.83-6.91-1.24-7.51Z"/>
        </g>
      </g>
      <g>
        <path class="st2" d="M11.34,45.33c-.5.14-.94-.05-1.11-.13-3.59-1.61-3.02-13.98.43-15.04.51-.16.92-.02,1.01.02,3.35,1.21,2.85,14.26-.34,15.15Z"/>
        <g class="st9">
          <path class="st20" d="M12.63,34.54c-.56-.16-1.06.12-1.17.18-1.42.79-1.8,3.66-.56,5.54.69,1.05,2.16,2.2,2.98,1.78,1.52-.77.83-6.91-1.24-7.51Z"/>
        </g>
      </g>
    </g>
    <path class="st2" d="M15.56,45.82c-.49.13-.9.12-1.11.12-.27,0-.66-.05-1.11-.19h0c-.34-.12-.59-.27-.77-.15-.13.09-.18.3-.15.42.09.45,1.34.65,2.32.62,1.01-.03,2.29-.33,2.33-.77,0-.1-.05-.24-.15-.31-.13-.09-.3-.02-.52.05-.27.09-.55.14-.83.22Z"/>
    <path class="st2" d="M15.35,46.45c-.02.09-.03.23-.02.39.02.17.03.3.12.39.18.18.55.14.7-.03.06-.07.07-.15.07-.47,0-.26,0-.48,0-.66l-.87.38Z"/>
  </g>
  <g>
    <path class="st18" d="M33.24,50.4c.11.78.22,1.57.34,2.37.12.82.25,1.64.38,2.44-.28.04-.66.08-1.1.01-.78-.11-1.03-.42-1.69-.36-.22.02-.64.05-.93.38-.24.28-.38.76-.2,1.06.27.45,1.12.29,2.74.26.76-.02,1.42,0,1.96.03.33.02.61-.24.61-.57,0-1.09,0-2.18-.02-3.28,0-.78-.02-1.55-.03-2.32h-2.07Z"/>
    <path class="st18" d="M39.09,50.65c-.04.71-.1,1.46-.19,2.25-.11.91-.24,1.76-.39,2.56.52.12.91.09,1.18.03.55-.11.72-.35,1.24-.35.17,0,.58,0,.92.27.33.27.6.8.43,1.13-.15.3-.65.37-2.74.26-.74-.04-1.39-.09-1.92-.13-.32-.03-.56-.31-.53-.63.02-.2.04-.42.06-.67.04-.64.02-1.16,0-2.14-.02-.7-.05-1.58-.13-2.58h2.07Z"/>
    <path class="st16" d="M49.02,39.87c.05.45-.11,1.3-.19,2.36-.05.7.04,1.52-.18,2.36-.19.72-.4,1.51-.78,2.25-.34.67-.9,1.27-1.43,1.91-.58.7-1.39,1.14-2.12,1.68s-1.4,1.15-2.24,1.52-1.71.57-2.61.76-1.78.22-2.69.24-1.79-.03-2.69-.2-1.84-.17-2.69-.52-1.45-1.09-2.2-1.62c-.69-.49-1.55-.78-2.12-1.39s-.96-1.4-1.4-2.11-.93-1.43-1.22-2.22-.6-1.61-.73-2.44.02-1.7.06-2.54c.04-.81-.06-1.67.13-2.47s.72-1.48,1.06-2.23.74-1.44,1.2-2.11.71-1.54,1.28-2.13,1.28-1.07,1.95-1.54,1.52-.62,2.26-.95,1.48-.6,2.28-.77,1.56-.25,2.4-.25c.84,0,1.67-.14,2.44.03.81.18,1.47.73,2.19,1.07s1.6.48,2.24.96,1.05,1.25,1.6,1.84,1.34,1.01,1.79,1.68.77,1.46,1.1,2.19.78,1.48,1,2.25c.23.8.23,1.66.31,2.44Z"/>
    <g>
      <path class="st17" d="M47.55,41.27c-.57-.12-.34-.77-.37-1.2-.02-.31-.27-1.07-.07-1.27.38-.27.66.14.77.48.12.36.36,2.13-.33,1.99Z"/>
      <path class="st17" d="M37.31,31.42c-.45-.13-.41-.58.04-.75.37-.14,2.38-.48,1.98.38-.19.42-.61.2-.96.23-.27.02-.86.2-1.07.14Z"/>
      <path class="st17" d="M44.05,36.25c-.45-.12-.4-.97-.38-1.37.01-.38.15-.96.63-.59.19.15.27,1.61.15,1.8-.09.14-.24.21-.4.16Z"/>
      <path class="st17" d="M26.97,39.28c-.62-.2.11-1.36.34-1.66.38-.49.83.02.64.54-.12.34-.54,1.27-.99,1.12Z"/>
      <path class="st17" d="M41.56,49.9c-.34-.07-.47-.35-.29-.64.04-.06.82-.87.88-.91.27-.2.67-.04.66.26-.02.35-.88,1.37-1.25,1.29Z"/>
      <path class="st17" d="M39.17,35.95c-.2-.06-.95-.72-1.06-.9-.18-.3.02-.66.38-.62.27.03,1.07.81,1.08,1.11,0,.25-.12.49-.4.41Z"/>
      <path class="st17" d="M29.75,47.54c.24-.07,1.33.44,1.31.76-.05.7-1.34.36-1.56-.19-.08-.19.07-.51.25-.56Z"/>
      <path class="st17" d="M43.51,43.02c.14.44-.01,1.75-.64,1.1-.15-.15-.22-.92-.15-1.11.17-.43.65-.42.79,0Z"/>
      <path class="st17" d="M27.79,43.6c-.72-.12-.23-1.65.24-1.55.69.15.11,1.61-.24,1.55Z"/>
      <path class="st17" d="M29.88,32.33c-.12-.44.49-.57.72-.69.2-.11.65-.56.83-.2.09.17-.31.42-.42.55-.19.21-.29.49-.61.59-.21.07-.47-.03-.53-.25Z"/>
      <path class="st17" d="M33.3,37.5c-.26-.05-.47-.28-.35-.55.16-.34,1.33-.67,1.6-.3.29.41-1.05.89-1.25.85Z"/>
    </g>
    <g>
      <g>
        <path class="st2" d="M39.68,46.6c-.44.12-.83-.05-.98-.11-3.17-1.42-2.66-12.36.38-13.29.45-.14.81-.02.89.01,2.96,1.07,2.52,12.61-.3,13.39Z"/>
        <g class="st15">
          <path class="st20" d="M40.82,37.06c-.49-.14-.94.11-1.04.16-1.25.7-1.59,3.24-.5,4.89.61.93,1.9,1.94,2.63,1.57,1.35-.68.74-6.11-1.09-6.63Z"/>
        </g>
      </g>
      <g>
        <path class="st2" d="M33.55,46.69c-.44.12-.83-.05-.98-.11-3.17-1.42-2.66-12.36.38-13.29.45-.14.81-.02.89.01,2.96,1.07,2.52,12.61-.3,13.39Z"/>
        <g class="st11">
          <path class="st20" d="M34.69,37.16c-.49-.14-.94.11-1.04.16-1.25.7-1.59,3.24-.5,4.89.61.93,1.9,1.94,2.63,1.57,1.35-.68.74-6.11-1.09-6.63Z"/>
        </g>
      </g>
    </g>
    <path class="st6" d="M32.78,26.18c-1.17.21-1.92.69-2.15.84-.17.11-2.11,1.44-1.76,2.45.24.69,1.35.99,2.15.99,1.96.02,2.6-1.73,4.06-1.47,1.12.2,1.06,1.24,2.3,1.47,1.38.26,1.9-.94,3.22-.65,1.16.26,1.29,1.31,2.3,1.3.72,0,1.42-.55,1.69-1.17.5-1.18-.59-2.58-1.23-3.14-1.49-1.32-4.07-1.29-6.6-.08-.74-.33-2.22-.85-3.98-.53Z"/>
    <path class="st6" d="M42.54,27.8c-.04-1.53,2.56-2.69,2.93-2.86,1.42-.63,4.38-1.46,5.64-.07.6.66.79,1.78.45,2.08-.31.27-1.1-.12-1.19.07-.06.13.3.32.26.48-.07.33-1.73-.04-3.5.15-2.39.25-3.83,1.4-4.41.76-.18-.19-.18-.44-.19-.61Z"/>
    <path class="st6" d="M32.06,27.21c.19-.94-1.34-2.18-2.76-2.61-1.55-.48-3.74-.24-4.23.9-.23.53-.1,1.29.33,1.66.51.44,1.05.02,2.33.05,2.07.05,3.11,1.21,3.94.57.08-.06.32-.26.38-.57Z"/>
    <path class="st2" d="M35.42,46.64c-.15.15-.03.54.14.76.32.43,1.09.63,1.58.28.39-.28.56-.89.4-1.05-.06-.06-.16-.06-.24-.04-.29.09-.18.61-.49.79-.21.12-.54.05-.72-.11-.26-.23-.16-.62-.4-.7-.09-.03-.2,0-.26.05Z"/>
  </g>
  <g>
    <g>
      <g>
        <path class="st18" d="M74.69,49.95l-.38,5.03c-.05.72-.76,1.17-1.45.96-1.44-.45-2.95-.11-3.82.85-.49.53-.7,1.17-.78,1.73-.11.82.5,1.57,1.32,1.63l7.27.35c.6.03,1.11-.42,1.15-1.02l.7-9.41c.05-.64-.46-1.19-1.1-1.18s-1.15.04-1.83.04c-.58,0-1.06.44-1.1,1.02Z"/>
        <path class="st18" d="M85,50.35l.1,5.03c.01.72-.65,1.24-1.35,1.09-1.48-.31-2.94.17-3.73,1.2-.57.75-.65,1.63-.6,2.3.04.58.55,1.01,1.13,1l7.36-.19c.6-.02,1.08-.52,1.07-1.12l-.18-9.44c-.01-.62-.54-1.11-1.16-1.08-.58.03-1,.06-1.59.09s-1.06.53-1.05,1.12Z"/>
      </g>
      <g>
        <path class="st16" d="M81.52,7.12c4.68-.14,12.56.41,16.15,3.64,1.4,1.26,1.75,2.53,2.81,3.83,1.6,1.95,2.69,3.37,2.85,3.57,2.73,3.34,5.52,19.48-4.63,28.13-7.22,6.15-16.58,4.77-21.17,4.1-3.26-.48-7.05-1.23-10.8-4.1-5.9-4.51-6.34-12.68-6.49-15.41-.54-10.01,5.22-16.47,5.5-16.77.95-1.07,1.64-1.21,2.67-1.93,4.35-3.01,7.56-4.9,13.11-5.07Z"/>
        <path class="st16" d="M90.22,11.57c.24-.23.22-.86-.06-1.1-.8-.71-3.13-.21-2.65.95.22.52,2.38.46,2.71.15ZM96.54,16.28c-.61.19-.36,2.99.86,2.67.84-.22.39-3.06-.86-2.67ZM69.45,17.34c-.66.18-1.21,2.5-.96,3.07.23.51.99.43,1.26-.11.06-.12.66-2.05.67-2.17.06-.61-.38-.96-.98-.79ZM101.33,22.52c-.82.13-.75,1.94-.67,2.59.11.97,1.24,1.43,1.46.34.13-.66.36-3.11-.79-2.93ZM71.89,29.91c.56.57,1.34.2,1.26-.62-.04-.37-.77-1.53-1.13-1.65-1.53-.53-.71,1.69-.13,2.27ZM92.65,30.48c-.35.1-2.12,1.94-1.32,2.36.73.38,2.34-1.1,2.31-1.77-.02-.52-.53-.72-.99-.59ZM102.29,35.98c-.27-.3-.77-.25-1.05.03-.42.42-.36.96-.49,1.44-.07.29-.5,1.01-.22,1.21.58.42.93-.65,1.16-.99.27-.38,1.15-1.07.6-1.68ZM66.84,35.97c-1.22.33.58,2.96,1.07,3.44.46.45,1.24.89,1.62.15.16-.48-.85-1.49-1.14-1.97-.4-.66-.55-1.89-1.56-1.62ZM84.53,37.69c-.51.1-.52.58-.3.98.26.48,2.17,1.09,2.62.91.6-.24.64-.97.1-1.3-.33-.2-2.05-.66-2.42-.59ZM76.49,41.15c-.29.06-.47.29-.5.58-.04.4,1.26,2.67,1.69,2.75,1.07.21.82-.84.53-1.46-.3-.66-.91-2.04-1.72-1.88ZM91.15,43.43c-.39.07-1.18.84-1.59,1.09-.53.32-1.37.31-1.34,1.13.06,1.69,3-.46,3.47-.99.58-.64.28-1.38-.54-1.23Z"/>
        <g>
          <path class="st17" d="M66.84,35.97c1.01-.27,1.16.96,1.56,1.62.29.48,1.3,1.49,1.14,1.97-.39.75-1.17.31-1.62-.15-.49-.48-2.29-3.12-1.07-3.44Z"/>
          <path class="st17" d="M91.15,43.43c.82-.15,1.12.59.54,1.23-.48.52-3.41,2.68-3.47.99-.03-.82.81-.82,1.34-1.13.41-.25,1.21-1.01,1.59-1.09Z"/>
          <path class="st17" d="M75.22,41.75c.59-.58,1.86.25,2.47.63.58.36,1.36,1.1.35,1.51-.4.16-2.74-1.01-2.92-1.38-.13-.26-.12-.55.1-.76Z"/>
          <path class="st17" d="M100.36,23.59c1.15-.18.92,2.27.79,2.93-.22,1.08-1.35.63-1.46-.34-.08-.64-.15-2.46.67-2.59Z"/>
          <path class="st17" d="M69.45,17.34c.6-.16,1.03.18.98.79-.01.12-.61,2.04-.67,2.17-.27.54-1.04.61-1.26.11-.25-.57.3-2.89.96-3.07Z"/>
          <path class="st17" d="M86.16,38.19c.37-.07,2.09.38,2.42.59.53.33.5,1.06-.1,1.3-.45.18-2.37-.43-2.62-.91-.22-.4-.2-.88.3-.98Z"/>
          <path class="st17" d="M90.22,11.57c-.33.31-2.49.37-2.71-.15-.49-1.16,1.85-1.66,2.65-.95.28.24.3.87.06,1.1Z"/>
          <path class="st17" d="M64.74,29.59c-.58-.59-1.4-2.81.13-2.27.36.13,1.1,1.28,1.13,1.65.08.82-.7,1.19-1.26.62Z"/>
          <path class="st17" d="M94.36,18.57c1.25-.39,1.7,2.45.86,2.67-1.22.32-1.47-2.48-.86-2.67Z"/>
          <path class="st17" d="M102.29,35.98c.55.61-.33,1.3-.6,1.68-.24.34-.58,1.41-1.16.99-.27-.2.15-.92.22-1.21.13-.48.06-1.02.49-1.44.28-.28.78-.33,1.05-.03Z"/>
          <path class="st17" d="M92.18,31.49c.46-.13.97.08.99.59.03.67-1.58,2.15-2.31,1.77-.8-.42.97-2.27,1.32-2.36Z"/>
          <g>
            <path class="st2" d="M82.37,36.51c.27.11.48.44.43.71-.05.3-.42.44-.62.57-.92.61-2.79,1.24-3.89,1.07-.56-.09-2.48-.95-1.73-1.67.45-.43,1.09.26,1.56.39.97.27,1.87-.06,2.26-.2,1.11-.39,1.48-1.07,1.98-.86Z"/>
            <path class="st12" d="M74.7,17.69c-.55-.22-.76-.74-.82-.89-.4-.97.11-2.08.28-2.07.13.01-.07.69.33,1.48.47.93,1.35,1.19,1.25,1.44-.07.19-.63.2-1.04.03Z"/>
            <path class="st12" d="M82.12,18.5c-.55-.22-.76-.74-.82-.89-.4-.97.11-2.08.28-2.07.13.01-.07.69.33,1.48.47.93,1.35,1.19,1.25,1.44-.07.19-.63.2-1.04.03Z"/>
            <g>
              <g>
                <path class="st2" d="M80.44,34.94c-.58.07-1.04-.21-1.22-.32-3.75-2.39-1.1-16.16,2.94-16.78.59-.09,1.03.13,1.13.18,3.55,1.91.87,16.45-2.85,16.93Z"/>
                <g class="st0">
                  <path class="st20" d="M80.99,25.02s-.68-.39-1.4-.17c-2.41.76-3.33,7.36-1.05,8.86.09.06.74.47,1.45.26,2.36-.71,3.24-7.61.99-8.96Z"/>
                </g>
              </g>
              <g>
                <path class="st2" d="M72.91,34.39c-.58.07-1.04-.21-1.22-.32-3.75-2.39-1.1-16.16,2.94-16.78.59-.09,1.03.13,1.13.18,3.55,1.91.87,16.45-2.85,16.93Z"/>
                <g class="st10">
                  <path class="st20" d="M73.15,24.51c-.05-.03-.66-.39-1.34-.16-2.29.77-2.87,7.46-.75,8.61.53.29,1.06.13,1.13.11,2.29-.7,3.1-7.27.95-8.56Z"/>
                </g>
              </g>
            </g>
          </g>
        </g>
      </g>
    </g>
    <path class="st14" d="M66.12,42.82c-.28.34-.67.91-.81,1.69,0,0-.19,1.08.35,2.28,1.58,3.5,24.63,3.26,24.73,1.56,0-.08.01-.21-.17-1.23-.05-.27-.1-.61-.13-1.05-.13-1.63.06-3.01.27-3.99-3.02.9-7.19,1.82-12.2,1.96-4.88.14-9-.51-12.03-1.22Z"/>
    <path class="st6" d="M81.9,5.15c-.7-.96-1.84-2.15-3.57-2.77-2.31-.82-5.54-.56-6.08.8-.14.34-.08.7,0,.95-.6.18-1.51.55-2.37,1.31-1.32,1.18-2.78,3.52-2,5.35.8,1.89,3.87,3.05,7,1.75-.12-.26-.21-.52-.27-.76-.58-2.3.84-4.43,1.38-5.17-1.23,1.63-1.41,3.8-.47,5.47,1.14,2.03,3.74,3.01,6.15,2.17-.23-.48-.36-.93-.43-1.33-.49-2.83,1.7-5.17,2.14-5.63-2.11,2.42-2.25,5.62-.71,7.46,1.27,1.52,3.29,1.63,3.77,1.64-.29-.52-.59-1.25-.69-2.15-.32-2.78,1.56-4.85,1.93-5.24-.43.64-1.44,2.29-1.28,4.49.07.98.12,1.69.63,2.26,1.31,1.48,3.63-.31,8.54.13,2.09.19,3.13.64,3.79-.04.88-.91.13-2.96-.18-3.82-.68-1.86-3.07-8.68-10.05-11.1-1.57-.54-5.12-1.78-7.93,0-.76.48-1.28,1.06-1.6,1.49.4.28.91.7,1.39,1.3.42.52.71,1.02.9,1.42Z"/>
    <path class="st14" d="M96.26,6.09c.2-.12.56-.28.99-.25,1.23.09,1.81,1.64,1.9,1.88.05.14.51,1.41.01,1.79-.16.12-.37.12-.55.08-.29-.76-.76-1.71-1.55-2.66-.27-.32-.54-.6-.8-.84Z"/>
    <path class="st6" d="M99.52,8.03c.19.49.53,1.2,1.11,1.91.52.64,1.01,1.01,1.21,1.16,1.58,1.25,2.55,3.43,3.18,4.88.9,2.08.86,3.37,2.27,4.51.36.29,1,.81,1.55.62,1.24-.42.98-4,.94-4.42-.08-1-.31-2.26-1.67-5.38-1.59-3.65-2.42-5.46-3.73-6.03-2.13-.93-4.6.36-5.66,1,.27.58.54,1.17.81,1.75Z"/>
    <path class="st14" d="M62.75,41.48c6.85,2.73,12.16,2.77,15.85,2.24,5.42-.78,8.84-3.02,15.19-2.58,3.47.24,6.28,1.17,8.14,1.95-.32.3-.63.6-.95.9-1.48-.75-3.7-1.66-6.47-1.9-4.46-.39-7.89,1.14-9.13,1.63-3.96,1.57-10.5,2.4-21.85-.89-.26-.45-.52-.9-.79-1.34Z"/>
    <path class="st13" d="M61.68,40.8c2.21.5,3.97,3.17,3.37,4.46-.34.74-1.1.45-3.43,1.46-2.57,1.11-2.96,2.04-4.62,2.07-.39,0-1.6.02-2.64-.81-1.25-1-1.86-2.91-1.29-4.26.54-1.29,2.4-1.74,6.12-2.65,1.61-.39,2.07-.37,2.49-.28Z"/>
    <g>
      <g>
        <path class="st5" d="M90.29,55.31l-45.2-3.87c-.43-.04-.82-.26-1.07-.61l-1.43-2.01c-.55-.77-.24-1.84.63-2.2l7.46-3.1c.22-.09.46-.13.7-.11l39.15,3.78c.64.06,1.16.53,1.29,1.16l.83,3.93c.08.38,0,.77-.2,1.1l-.82,1.27c-.29.46-.82.71-1.36.67Z"/>
        <g>
          <g class="st4">
            <path class="st7" d="M44.37,47.91c7.71.77,15.42,1.6,23.13,2.37s15.4,1.76,23.12,2.53"/>
          </g>
          <g class="st3">
            <path class="st8" d="M51.33,44.79c.27.53.79.52.52,1.05-1.36.52-2.69,1.02-4.05,1.54"/>
          </g>
          <g class="st3">
            <path class="st8" d="M52.48,45.97c18.55,1.9,18.58,1.6,37.12,3.49"/>
          </g>
        </g>
      </g>
      <g>
        <path class="st1" d="M51.03,45.97c.07.34.46.54,1,.67.41.1.87.13,1.29.19.78.1,1.38.24,1.55-.05.14-.24-.14-.6-.36-.84-.25-.28-.45-.32-1.7-.5-1.1-.16-1.47-.33-1.7-.1-.13.12-.12.42-.08.63Z"/>
        <path class="st1" d="M57.12,46.67c.07.34.38.61.92.74.41.1.87.18,1.29.24.78.1,1.37.11,1.54-.18.14-.24-.08-.62-.29-.85-.25-.28-.47-.37-1.73-.55-1.1-.16-1.45-.22-1.69,0-.13.12-.09.37-.05.59Z"/>
        <path class="st1" d="M54.24,47.75c.07.34.53.46,1.07.6.41.1.87.13,1.29.18.78.1,1.24.23,1.42-.06.14-.24.14-.66-.07-.9-.25-.28-.6-.16-1.86-.35-1.1-.16-1.32-.18-1.55.04-.13.12-.33.27-.29.49Z"/>
        <path class="st1" d="M63.8,47.35c.07.34.53.52,1.07.65.41.1.88.07,1.3.12.78.1,1.26.25,1.44-.04.14-.24-.02-.55-.24-.78-.25-.28-.45-.36-1.71-.55-1.1-.16-1.4-.19-1.63.03-.13.12-.27.35-.23.57Z"/>
        <path class="st1" d="M61.33,48.36c.07.34.56.61,1.1.74.41.1.9.02,1.32.08.78.1,1.42.27,1.59-.02.14-.24-.18-.63-.39-.86-.25-.28-.45-.29-1.71-.48-1.1-.16-1.41-.29-1.65-.07-.13.12-.3.38-.26.6Z"/>
        <path class="st1" d="M69.9,47.82c.07.34.41.46.95.59.41.1.85.27,1.26.33.78.1,1.35.17,1.52-.12.14-.24.03-.71-.18-.94-.25-.28-.58-.26-1.83-.44-1.1-.16-1.38-.15-1.61.07-.13.12-.16.29-.12.51Z"/>
        <path class="st1" d="M67.67,48.9c.07.34.41.57.95.7.41.1.88.15,1.29.21.78.1,1.39.2,1.56-.09.14-.24-.12-.63-.33-.86-.25-.28-.48-.27-1.73-.45-1.1-.16-1.35-.23-1.58,0-.13.12-.21.28-.16.5Z"/>
        <path class="st1" d="M77.27,49.07c.07.34.44.55.98.68.41.1.86.23,1.28.29.78.1,1.3.08,1.48-.21.14-.24.08-.67-.13-.9-.25-.28-.58-.19-1.84-.37-1.1-.16-1.39-.25-1.62-.03-.13.12-.2.33-.15.54Z"/>
        <path class="st1" d="M81.03,50.29c.07.34.44.6.98.74.41.1.88.17,1.29.23.78.1,1.32.09,1.5-.2.14-.24-.08-.55-.29-.78-.25-.28-.43-.39-1.68-.57-1.1-.16-1.47-.25-1.7-.03-.13.12-.14.41-.09.62Z"/>
        <path class="st1" d="M86.91,50.88c.1.33.49.62,1.05.71.41.07.9.03,1.32.05.78.04,1.34-.01,1.49-.32.12-.25-.12-.58-.35-.79-.28-.26-.48-.39-1.75-.47-1.11-.07-1.39.03-1.61.27-.12.14-.21.34-.15.55Z"/>
        <path class="st1" d="M73.65,49.47c.07.34.41.51.95.65.41.1.86.21,1.28.27.78.1,1.37.18,1.54-.11.14-.24-.13-.59-.34-.82-.25-.28-.42-.46-1.68-.64-1.1-.16-1.46-.16-1.69.07-.13.12-.1.37-.06.59Z"/>
        <path class="st1" d="M84.14,49.52c.07.34.56.56,1.1.69.41.1.89.08,1.31.14.78.1,1.4.26,1.58-.03.14-.24-.01-.75-.23-.98-.25-.28-.61-.1-1.87-.28-1.1-.16-1.34-.28-1.57-.06-.13.13-.36.31-.32.52Z"/>
      </g>
    </g>
    <path class="st13" d="M94.34,44.11c1.36-.91,4.13-.15,5.26,1.48,1.73,2.48-.14,7.2-3.43,8.78-2.21,1.06-5.77,1.04-7.15-1.15-1-1.6-.72-4.13.53-5.14.88-.71,1.64-.16,2.76-.97,1.36-.98.97-2.29,2.03-3Z"/>
  </g>
</svg>