<?xml version="1.0" encoding="UTF-8"?>
<svg id="_圖層_1" data-name="圖層_1" xmlns="http://www.w3.org/2000/svg" version="1.1" xmlns:xlink="http://www.w3.org/1999/xlink" viewBox="0 0 122.74 48.4">
  <!-- Generator: Adobe Illustrator 30.5.1, SVG Export Plug-In . SVG Version: 2.1.4 Build 3)  -->
  <defs>
    <style>
      .st0 {
        fill: none;
        stroke: #b76f31;
        stroke-linecap: round;
        stroke-linejoin: round;
        stroke-width: .47px;
      }

      .st1 {
        clip-path: url(#clippath-4);
      }

      .st2, .st3 {
        fill: #fde8db;
      }

      .st4 {
        fill: #fff;
      }

      .st3 {
        opacity: .43;
      }

      .st5 {
        fill: #71534c;
      }

      .st6 {
        clip-path: url(#clippath-1);
      }

      .st7 {
        fill: #a14a24;
      }

      .st8 {
        clip-path: url(#clippath-5);
      }

      .st9 {
        fill: #e2886c;
      }

      .st10 {
        fill: #b16820;
      }

      .st11 {
        clip-path: url(#clippath-3);
      }

      .st12 {
        fill: #b76f31;
      }

      .st13 {
        fill: #d14718;
      }

      .st14 {
        fill: #a62933;
      }

      .st15 {
        fill: #cf8973;
      }

      .st16 {
        clip-path: url(#clippath-2);
      }

      .st17 {
        fill: #f18d23;
      }

      .st18 {
        fill: #f9ce8a;
      }

      .st19 {
        fill: #c8731c;
      }

      .st20 {
        clip-path: url(#clippath);
      }

      .st21 {
        fill: #a4918c;
      }

      .st22 {
        fill: #df8427;
      }

      .st23 {
        fill: #e0741b;
      }
    </style>
    <clipPath id="clippath">
      <path class="st4" d="M23.08,25.64c.44.01.76-.23.88-.33,2.61-2.04-.36-12.07-3.4-12.24-.45-.03-.76.17-.83.22-2.5,1.67.55,12.27,3.34,12.35Z"/>
    </clipPath>
    <clipPath id="clippath-1">
      <path class="st4" d="M28.63,24.69c.44.01.76-.23.88-.33,2.61-2.04-.36-12.07-3.4-12.24-.45-.03-.76.17-.83.22-2.5,1.67.55,12.27,3.34,12.35Z"/>
    </clipPath>
    <clipPath id="clippath-2">
      <path class="st4" d="M68,27.77c-.43.06-.78-.16-.91-.24-2.8-1.78-.82-12.05,2.19-12.51.44-.07.77.1.84.14,2.65,1.42.65,12.26-2.13,12.62Z"/>
    </clipPath>
    <clipPath id="clippath-3">
      <path class="st4" d="M62.39,27.36c-.43.06-.78-.16-.91-.24-2.8-1.78-.82-12.05,2.19-12.51.44-.07.77.1.84.14,2.65,1.42.65,12.26-2.13,12.62Z"/>
    </clipPath>
    <clipPath id="clippath-4">
      <path class="st4" d="M102.35,26.32c-.45.07-.82-.15-.96-.23-2.98-1.78-1.21-12.27,1.88-12.78.45-.07.79.09.87.13,2.77,1.4,1.08,12.46-1.8,12.88Z"/>
    </clipPath>
    <clipPath id="clippath-5">
      <path class="st4" d="M96.46,26.01c-.45.07-.82-.15-.96-.23-2.99-1.79-1.14-12.31,1.97-12.81.46-.07.8.09.88.13,2.78,1.4,1.02,12.49-1.88,12.91Z"/>
    </clipPath>
  </defs>
  <g>
    <g>
      <path class="st9" d="M13.92,39.17c-.43,2.1-.86,4.19-1.29,6.29l2.05.09c.23-2.17.46-4.34.69-6.51-.48.04-.97.09-1.45.13Z"/>
      <path class="st9" d="M22.4,39c.2,2.2.4,4.4.6,6.6.78-.04,1.56-.09,2.35-.13-.4-2.13-.81-4.26-1.21-6.39l-1.74-.08Z"/>
      <rect class="st9" x="11.82" y="37.06" width="13.99" height="2.77" rx="1.39" ry="1.39"/>
    </g>
    <g>
      <g>
        <g>
          <path class="st10" d="M27.8,36.49l1.09,3.59c.15.51.74.73,1.21.46.98-.56,2.13-.56,2.92,0,.58.4.84,1.01.96,1.49.1.42-.15.84-.57.97l-5.26,1.55c-.43.13-.89-.12-1.02-.55l-2.04-6.74c-.13-.44.13-.91.57-1.03.42-.11.72-.18,1.15-.3s.87.13,1,.55Z"/>
          <path class="st19" d="M21.66,37.22l1.07,3.61c.15.51.74.74,1.21.47.98-.55,2.13-.54,2.92.02.44.31.69.74.84,1.14.21.58-.11,1.22-.71,1.4l-5.24,1.4c-.43.11-.87-.13-1-.56l-2-6.75c-.14-.46.15-.94.61-1.04s.85-.15,1.34-.26c.42-.09.84.16.96.57Z"/>
        </g>
        <g>
          <path class="st17" d="M20.27,5.08c-3.48.23-9.29,1.21-11.72,3.87-.95,1.03-1.12,2.01-1.81,3.04-1.04,1.56-1.75,2.69-1.86,2.86-1.78,2.68-2.68,14.85,5.47,20.54,5.8,4.04,12.65,2.34,16,1.51,2.38-.59,5.14-1.42,7.72-3.82,4.05-3.77,3.79-9.86,3.7-11.9-.33-7.47-5.07-11.84-5.29-12.04-.78-.72-1.3-.78-2.12-1.24-3.45-1.92-5.97-3.09-10.09-2.81Z"/>
          <g>
            <path class="st18" d="M33.25,25.42c-.77-.13-.79.79-1.04,1.31-.18.38-.86,1.2-.7,1.55.34.53.89.14,1.19-.23.33-.39,1.48-2.48.55-2.63Z"/>
            <path class="st18" d="M15.75,32.72c-.62-.05-.79.52-.31.95.39.35,2.72,1.74,2.65.48-.04-.61-.66-.55-1.08-.74-.32-.15-.97-.67-1.26-.69Z"/>
            <path class="st18" d="M27.45,30.32c-.48-.39-1.36.32-1.79.65-.4.31-.93.91-.15,1.15.31.09,1.96-.95,2.07-1.23.08-.2.05-.42-.13-.56Z"/>
            <path class="st18" d="M7.49,18.66c-.86-.05-.52,1.75-.37,2.23.24.79,1.04.37,1.06-.36,0-.48-.06-1.84-.68-1.87Z"/>
            <path class="st18" d="M29.97,11.79c-.45-.08-.75.21-.67.66.02.09.6,1.47.66,1.56.24.38.81.38.94-.01.15-.44-.43-2.12-.93-2.21Z"/>
            <path class="st18" d="M19.08,28.47c-.28-.03-1.52.44-1.75.61-.37.28-.29.83.17.96.35.1,1.72-.49,1.88-.86.13-.31.09-.67-.3-.7Z"/>
            <path class="st18" d="M14.14,9.01c.27.21,1.87.1,2-.31.28-.9-1.49-1.1-2.03-.51-.19.2-.16.67.04.82Z"/>
            <path class="st18" d="M34.34,20.54c.39-.48.83-2.18-.26-1.68-.26.12-.72,1.03-.72,1.31,0,.61.61.83.98.37Z"/>
            <path class="st18" d="M11.57,14.5c-.96-.2-1.08,1.94-.44,2.04.93.15.91-1.95.44-2.04Z"/>
            <path class="st18" d="M6.95,28c-.37.49.34.94.57,1.21.2.23.54,1,.94.65.19-.17-.18-.67-.25-.88-.13-.35-.12-.75-.47-1.03-.23-.19-.6-.19-.78.06Z"/>
            <path class="st18" d="M14.12,23.93c-.35-.06-.72.13-.69.51.03.5,1.33,1.48,1.84,1.15.57-.37-.88-1.61-1.15-1.66Z"/>
            <g>
              <path class="st4" d="M21.77,26.95c-.19.1-.32.36-.27.56.06.22.34.29.5.38.73.39,2.16.72,2.96.51.41-.11,1.77-.89,1.16-1.37-.36-.28-.79.27-1.13.4-.7.27-1.39.09-1.69.02-.85-.21-1.18-.69-1.53-.5Z"/>
              <path class="st12" d="M26.1,12.43c.39-.21.51-.6.55-.72.23-.75-.23-1.54-.36-1.51-.1.02.1.51-.14,1.12-.28.73-.91.98-.82,1.16.07.13.48.1.77-.05Z"/>
              <path class="st12" d="M20.65,13.57c.39-.21.51-.6.55-.72.23-.75-.23-1.54-.36-1.51-.1.02.1.51-.14,1.12-.28.73-.91.98-.82,1.16.07.13.48.1.77-.05Z"/>
              <g>
                <g>
                  <path class="st4" d="M23.08,25.64c.44.01.76-.23.88-.33,2.61-2.04-.36-12.07-3.4-12.24-.45-.03-.76.17-.83.22-2.5,1.67.55,12.27,3.34,12.35Z"/>
                  <g class="st20">
                    <path class="st22" d="M22.03,16.93s.47-.34,1.03-.22c1.85.39,3,5.22,1.42,6.5-.06.05-.51.4-1.06.3-1.81-.35-2.95-5.41-1.39-6.57Z"/>
                  </g>
                </g>
                <g>
                  <path class="st4" d="M28.63,24.69c.44.01.76-.23.88-.33,2.61-2.04-.36-12.07-3.4-12.24-.45-.03-.76.17-.83.22-2.5,1.67.55,12.27,3.34,12.35Z"/>
                  <g class="st6">
                    <path class="st22" d="M27.86,16.27s.46-.33.98-.21c1.76.41,2.67,5.33,1.18,6.33-.37.25-.78.18-.83.16-1.75-.35-2.82-5.17-1.32-6.28Z"/>
                  </g>
                </g>
              </g>
            </g>
          </g>
          <path class="st0" d="M20.22,25.66c-.26.03-.84.12-1.41.55-.78.6-.98,1.43-1.03,1.66"/>
        </g>
      </g>
      <path class="st21" d="M19.84,3.65c.45-.76,1.21-1.73,2.45-2.31,1.66-.78,4.07-.82,4.57.15.13.25.11.51.07.7.46.09,1.16.3,1.85.8,1.07.78,2.31,2.41,1.87,3.82-.45,1.46-2.65,2.54-5.07,1.8.07-.2.12-.4.14-.59.26-1.75-.94-3.23-1.4-3.73,1.03,1.12,1.32,2.71.75,4.02-.7,1.59-2.56,2.5-4.4,2.06.14-.38.2-.72.22-1.01.16-2.13-1.64-3.71-1.99-4.02,1.74,1.64,2.08,4.01,1.07,5.48-.83,1.22-2.33,1.45-2.68,1.49.18-.41.35-.97.36-1.64.03-2.09-1.51-3.49-1.81-3.75.37.44,1.23,1.6,1.27,3.24.02.73.03,1.26-.3,1.72-.87,1.19-2.72.04-6.33.72-1.53.29-2.28.7-2.81.25-.72-.61-.31-2.19-.14-2.85.37-1.43,1.65-6.66,6.65-8.96,1.12-.52,3.67-1.69,5.89-.57.6.3,1.02.69,1.3.99-.27.24-.62.59-.94,1.07-.28.42-.45.81-.56,1.12Z"/>
      <path class="st14" d="M9.26,5.39c-.16-.07-.44-.17-.75-.11-.91.15-1.23,1.35-1.27,1.53-.03.11-.28,1.08.12,1.33.12.07.28.06.42.02.16-.58.44-1.33.95-2.08.18-.26.36-.48.54-.68Z"/>
      <path class="st21" d="M6.98,7.06c-.11.38-.3.92-.68,1.49-.34.51-.68.82-.82.95-1.08,1.04-1.65,2.73-2,3.85-.52,1.61-.4,2.56-1.36,3.51-.24.24-.68.67-1.1.57C.07,17.22,0,14.54,0,14.23c-.01-.75.07-1.7.85-4.11.92-2.82,1.4-4.22,2.33-4.74,1.51-.84,3.44-.07,4.27.33-.16.45-.32.9-.47,1.36Z"/>
    </g>
    <g>
      <g>
        <rect class="st15" x="27.97" y="33.68" width="26.02" height="2.79" rx="1.39" ry="1.39"/>
        <polygon class="st15" points="30.1 35.68 27.97 46.19 31.48 46.19 32.24 35.9 30.1 35.68"/>
        <polygon class="st15" points="49.19 35.68 50.29 46.19 53.29 46.19 50.86 35.68 49.19 35.68"/>
        <polygon class="st15" points="38.95 35.68 40.05 46.19 43.06 46.19 40.62 35.68 38.95 35.68"/>
      </g>
      <g>
        <g>
          <path class="st2" d="M33.21,26.75h4.4c.41,0,.73.38.66.8-.25,1.38-.46,2.9-.71,4.26-.06.32-.33.55-.65.55l-3.15.04c-.34,0-.63-.26-.67-.6-.19-1.62-.36-2.69-.54-4.27-.05-.41.26-.77.66-.77Z"/>
          <path class="st7" d="M33.15,26.91c-.09.02-.32.09-.38.22,0,0-.04.11.07.24.4.47,4.84.44,5.18,0,.1-.13.06-.23.06-.23,0-.02-.03-.09-.13-.15-.13-.08-.3-.07-.33-.06-1.49,0-2.98-.01-4.47-.02Z"/>
          <path class="st2" d="M37.69,28.6c.49-.43,1.08-.66,1.49-.46.71.33.8,1.85.11,2.52-.56.54-1.63.53-1.83.17-.06-.12-.03-.27.04-.44.42.28.94.27,1.28-.02.42-.34.55-1.07.21-1.38-.27-.25-.81-.23-1.22.14-.03-.17-.06-.35-.09-.52Z"/>
          <path class="st3" d="M32.76,26.99c.52-.47,1.3-1.02,2.31-1.12.97-.09,1.38.3,2.04,0,.92-.42.59-1.43,1.51-2.1.98-.72,2.36-.3,3.96.2.92.28,1.1.5,1.12.67.06.43-.73.87-1.19,1.12-.04.02-.08.04-.13.07-1.23.63-2.83.15-3.84.97-.38.31-.19.41-.6.75-.61.51-1.31.51-2.62.51-1.29,0-2.22-.03-2.5-.59-.08-.17-.09-.34-.08-.47Z"/>
        </g>
        <rect class="st2" x="32.55" y="32.76" width="5.73" height=".69" rx=".35" ry=".35"/>
      </g>
    </g>
  </g>
  <g>
    <g>
      <g>
        <g>
          <g>
            <path class="st10" d="M64.46,38.92l-.28,3.75c-.04.53-.57.88-1.08.72-1.08-.33-2.2-.08-2.85.63-.36.4-.52.87-.58,1.29-.08.61.37,1.17.99,1.22l5.42.26c.44.02.82-.32.86-.76l.52-7.02c.04-.48-.34-.88-.82-.88s-.86.03-1.36.03c-.43,0-.79.33-.82.76Z"/>
            <path class="st19" d="M71.94,38.91l.4,3.73c.06.53-.4.96-.93.9-1.12-.14-2.17.31-2.69,1.13-.37.6-.38,1.25-.3,1.75.07.43.47.72.9.67l5.45-.62c.45-.05.77-.45.72-.9l-.74-7c-.05-.46-.47-.79-.93-.73-.43.06-.74.11-1.17.17s-.75.46-.71.9Z"/>
          </g>
          <g>
            <path class="st17" d="M68.8,7.04c3.49-.1,9.36.3,12.04,2.71,1.04.94,1.31,1.89,2.09,2.85,1.19,1.46,2,2.51,2.13,2.66,2.03,2.49,4.11,14.52-3.45,20.97-5.38,4.59-12.36,3.56-15.78,3.05-2.43-.36-5.26-.92-8.05-3.05-4.4-3.36-4.73-9.45-4.83-11.48-.4-7.46,3.89-12.27,4.1-12.5.71-.8,1.22-.9,1.99-1.44,3.24-2.25,5.64-3.65,9.77-3.78Z"/>
            <path class="st17" d="M75.28,10.36c.18-.17.16-.64-.04-.82-.59-.53-2.34-.16-1.97.71.16.39,1.77.35,2.02.11ZM79.99,13.86c-.45.14-.27,2.23.64,1.99.63-.16.29-2.28-.64-1.99ZM59.8,14.66c-.49.13-.9,1.86-.71,2.29.17.38.74.32.94-.08.05-.09.49-1.53.5-1.62.04-.46-.28-.71-.73-.59ZM83.57,18.51c-.61.09-.56,1.45-.5,1.93.09.73.92,1.06,1.09.26.1-.49.27-2.32-.59-2.18ZM61.63,24.02c.42.43,1,.15.94-.46-.03-.28-.58-1.14-.84-1.23-1.14-.4-.53,1.26-.1,1.7ZM77.1,24.45c-.26.07-1.58,1.45-.98,1.76.54.28,1.74-.82,1.72-1.32-.02-.38-.4-.54-.74-.44ZM84.29,28.55c-.2-.23-.57-.19-.78.02-.32.31-.27.71-.36,1.07-.06.21-.37.76-.17.9.43.31.69-.49.87-.74.2-.29.86-.8.45-1.25ZM57.86,28.54c-.91.24.43,2.21.8,2.57.34.34.92.67,1.21.11.12-.36-.63-1.11-.85-1.47-.3-.49-.41-1.41-1.16-1.21ZM71.04,29.82c-.38.07-.39.43-.23.73.19.35,1.62.81,1.95.68.45-.18.47-.72.08-.97-.24-.15-1.53-.49-1.8-.44ZM65.06,32.4c-.22.04-.35.22-.37.44-.03.3.94,1.99,1.26,2.05.79.16.61-.62.4-1.09-.23-.49-.68-1.52-1.28-1.4ZM75.98,34.1c-.29.05-.88.63-1.19.81-.4.24-1.02.23-1,.85.05,1.26,2.23-.35,2.59-.74.43-.48.21-1.03-.4-.92Z"/>
            <g>
              <path class="st18" d="M57.86,28.54c.75-.2.87.71,1.16,1.21.21.36.97,1.11.85,1.47-.29.56-.87.23-1.21-.11-.36-.36-1.71-2.32-.8-2.57Z"/>
              <path class="st18" d="M75.98,34.1c.61-.11.83.44.4.92-.36.39-2.54,2-2.59.74-.02-.61.6-.61,1-.85.31-.18.9-.76,1.19-.81Z"/>
              <path class="st18" d="M64.11,32.85c.44-.43,1.38.18,1.84.47.43.27,1.01.82.26,1.12-.3.12-2.04-.76-2.18-1.03-.1-.19-.09-.41.07-.57Z"/>
              <path class="st18" d="M82.84,19.31c.85-.13.69,1.69.59,2.18-.16.81-1,.47-1.09-.26-.06-.48-.12-1.83.5-1.93Z"/>
              <path class="st18" d="M59.8,14.66c.45-.12.77.13.73.59,0,.09-.45,1.52-.5,1.62-.2.4-.77.46-.94.08-.19-.42.22-2.15.71-2.29Z"/>
              <path class="st18" d="M72.26,30.2c.28-.05,1.56.29,1.8.44.4.25.37.79-.08.97-.34.13-1.76-.32-1.95-.68-.16-.3-.15-.66.23-.73Z"/>
              <path class="st18" d="M75.28,10.36c-.25.23-1.85.28-2.02-.11-.36-.87,1.38-1.23,1.97-.71.21.18.22.65.04.82Z"/>
              <path class="st18" d="M56.3,23.79c-.43-.44-1.04-2.09.1-1.7.27.09.82.96.84,1.23.06.61-.52.89-.94.46Z"/>
              <path class="st18" d="M78.38,15.57c.93-.29,1.27,1.83.64,1.99-.91.24-1.09-1.85-.64-1.99Z"/>
              <path class="st18" d="M84.29,28.55c.41.46-.24.97-.45,1.25-.18.25-.44,1.05-.87.74-.2-.15.11-.69.17-.9.09-.36.05-.76.36-1.07.21-.21.58-.25.78-.02Z"/>
              <path class="st18" d="M76.75,25.2c.34-.1.73.06.74.44.02.5-1.18,1.6-1.72,1.32-.6-.31.72-1.69.98-1.76Z"/>
              <g>
                <path class="st4" d="M69.43,28.95c.2.08.35.33.32.53-.03.22-.31.33-.46.42-.69.46-2.08.92-2.9.8-.42-.06-1.85-.71-1.29-1.25.34-.32.81.19,1.16.29.72.2,1.39-.04,1.69-.15.83-.29,1.1-.8,1.48-.64Z"/>
                <path class="st12" d="M63.72,14.92c-.41-.17-.57-.55-.61-.66-.3-.72.08-1.55.21-1.54.1,0-.05.51.25,1.1.35.7,1,.89.93,1.08-.05.14-.47.15-.77.02Z"/>
                <path class="st12" d="M69.25,15.52c-.41-.17-.57-.55-.61-.66-.3-.72.08-1.55.21-1.54.1,0-.05.51.25,1.1.35.7,1,.89.93,1.08-.05.14-.47.15-.77.02Z"/>
                <g>
                  <g>
                    <path class="st4" d="M68,27.77c-.43.06-.78-.16-.91-.24-2.8-1.78-.82-12.05,2.19-12.51.44-.07.77.1.84.14,2.65,1.42.65,12.26-2.13,12.62Z"/>
                    <g class="st16">
                      <path class="st22" d="M68.2,19s-.5-.29-1.04-.12c-1.8.57-2.48,5.49-.78,6.61.07.04.55.35,1.08.19,1.76-.53,2.41-5.67.74-6.68Z"/>
                    </g>
                  </g>
                  <g>
                    <path class="st4" d="M62.39,27.36c-.43.06-.78-.16-.91-.24-2.8-1.78-.82-12.05,2.19-12.51.44-.07.77.1.84.14,2.65,1.42.65,12.26-2.13,12.62Z"/>
                    <g class="st11">
                      <path class="st22" d="M62.33,18.91s-.49-.29-1-.12c-1.71.58-2.14,5.56-.56,6.42.4.21.79.1.84.08,1.71-.52,2.31-5.42.71-6.38Z"/>
                    </g>
                  </g>
                </g>
              </g>
            </g>
          </g>
        </g>
        <path class="st14" d="M56.49,33.65c.19.91.34,2.09.23,3.45-.05.58-.13,1.1-.23,1.58.32.06.97.18,1.79.31,8.75,1.4,17.04.83,17.12.02,0,0,0-.01,0-.03,0-.09,0-.29-.13-1.13h0c0-.53-.09-.92-.1-.99-.05-.26-.03-.92.22-2.54-3.79.74-8.77,1.2-14.44.3-1.6-.25-3.1-.59-4.47-.97Z"/>
        <path class="st5" d="M69.09,7.08c-.52-.59-1.37-1.31-2.66-1.69-1.73-.5-4.13-.34-4.53.49-.1.21-.06.43,0,.58-.45.11-1.13.34-1.76.8-.99.72-2.07,2.15-1.49,3.27.59,1.15,2.88,1.86,5.22,1.07-.09-.16-.15-.32-.2-.47-.43-1.41.63-2.71,1.03-3.16-.91,1-1.05,2.32-.35,3.34.85,1.24,2.79,1.84,4.58,1.33-.17-.3-.27-.57-.32-.81-.36-1.73,1.27-3.16,1.6-3.43-1.57,1.48-1.68,3.43-.53,4.55.95.93,2.46.99,2.81,1-.21-.32-.44-.76-.52-1.31-.24-1.7,1.16-2.96,1.44-3.2-.32.39-1.07,1.4-.95,2.74.05.6.09,1.03.47,1.38.98.9,2.71-.19,6.37.08,1.56.11,2.33.39,2.82-.02.66-.56.1-1.81-.14-2.33-.51-1.13-2.29-5.3-7.49-6.78-1.17-.33-3.81-1.09-5.91,0-.57.29-.95.65-1.19.91.3.17.67.43,1.04.8.31.32.53.62.67.87Z"/>
        <path class="st14" d="M54.81,32.65c5.02,1.42,9.06,1.68,11.81,1.67,2.77-.02,4.49-.32,11.21-.73,2.74-.17,4.97-.27,6.4-.33-.19.36-.39.71-.58,1.07-1.28.02-3.26.07-5.7.23-3.44.22-5.91.54-6.6.62-2.95.34-7.79.3-15.97-1.51-.2-.33-.39-.67-.59-1Z"/>
      </g>
      <g>
        <path class="st14" d="M83.22,10.36c.06-.49.79-.82,1.35-.71.04,0,.52.11.66.47.16.38-.2.71-.24.75-.33.29-.96.42-1.4.16-.24-.15-.4-.41-.37-.67Z"/>
        <path class="st14" d="M65.12,2.35c-1,.33-3.52,1.15-3.72,2.65-.08.59.22,1.11.5,1.46,1.92-.08,3.42.08,4.4.23,5.69.87,13.14,4.32,15.76,6.41.28.22,1.09.9,1.83.73.48-.11.87-.59.99-1.13.17-.82-.42-1.39-.45-1.43-.78-1.69-2.62-5.02-6.41-7.34-4.72-2.88-9.83-2.59-12.89-1.6Z"/>
      </g>
    </g>
    <g>
      <path class="st13" d="M44.66,28.42c-1.15.06-2.42,1.93-2.18,3.45.35,2.17,4.03,3.1,6.28,3.15,2.41.05,4.26-.9,5.15-1.44-.11-.52-.27-1.1-.49-1.72-.39-1.06-.87-1.93-1.31-2.6-.77.21-1.54.43-2.3.64-.32-.43-1.27-1.6-2.54-1.62-.19,0-.68-.01-.83.26-.26.47.68,1.43.6,1.51-.11.09-1.22-1.68-2.37-1.62Z"/>
      <g>
        <path class="st23" d="M45.14,22.28c-.89.06-2.37.31-2.99.99-.24.26-.28.51-.46.77-.27.4-.45.69-.47.73-.45.68-.68,3.78,1.39,5.23,1.48,1.03,3.22.6,4.08.38.61-.15,1.31-.36,1.97-.97,1.03-.96.96-2.51.94-3.03-.08-1.9-1.29-3.01-1.35-3.07-.2-.18-.33-.2-.54-.31-.88-.49-1.52-.79-2.57-.72Z"/>
        <g>
          <path class="st18" d="M48.44,27.46c-.2-.03-.2.2-.26.33-.05.1-.22.31-.18.39.09.13.23.04.3-.06.08-.1.38-.63.14-.67Z"/>
          <path class="st18" d="M43.98,29.32c-.16-.01-.2.13-.08.24.1.09.69.44.67.12,0-.16-.17-.14-.27-.19-.08-.04-.25-.17-.32-.18Z"/>
          <path class="st18" d="M46.96,28.71c-.12-.1-.35.08-.46.16-.1.08-.24.23-.04.29.08.02.5-.24.53-.31.02-.05.01-.11-.03-.14Z"/>
          <path class="st18" d="M41.88,25.74c-.22-.01-.13.45-.1.57.06.2.27.09.27-.09,0-.12-.02-.47-.17-.48Z"/>
          <path class="st18" d="M47.61,23.99c-.12-.02-.19.05-.17.17,0,.02.15.38.17.4.06.1.21.1.24,0,.04-.11-.11-.54-.24-.56Z"/>
          <path class="st18" d="M45.68,24.05c-.08.09-.06.19.05.23.02,0,.4.08.42.08.11,0,.2-.12.13-.2-.07-.09-.51-.21-.6-.12Z"/>
          <path class="st18" d="M46.32,26.4c-.05.1,0,.2.11.21.02,0,.4-.03.43-.04.11-.03.15-.17.07-.23-.1-.07-.55-.06-.61.06Z"/>
          <path class="st18" d="M44.83,28.23c-.07,0-.39.11-.45.16-.09.07-.07.21.04.24.09.03.44-.13.48-.22.03-.08.02-.17-.08-.18Z"/>
          <path class="st18" d="M44.05,23.43c.07.05.48.02.51-.08.07-.23-.38-.28-.52-.13-.05.05-.04.17,0,.21Z"/>
          <path class="st18" d="M48.72,26.22c.1-.12.21-.56-.07-.43-.07.03-.18.26-.18.33,0,.16.15.21.25.09Z"/>
          <path class="st18" d="M46.7,27.79c.1-.12.21-.56-.07-.43-.07.03-.18.26-.18.33,0,.16.15.21.25.09Z"/>
          <path class="st18" d="M42.92,24.68c-.24-.05-.28.49-.11.52.24.04.23-.5.11-.52Z"/>
          <path class="st18" d="M41.74,28.11c-.09.13.09.24.14.31.05.06.14.26.24.17.05-.04-.05-.17-.06-.22-.03-.09-.03-.19-.12-.26-.06-.05-.15-.05-.2.01Z"/>
          <path class="st18" d="M43.57,27.08c-.09-.02-.18.03-.18.13,0,.13.34.38.47.29.14-.09-.22-.41-.29-.42Z"/>
          <path class="st18" d="M45.06,25.54c.05-.07.05-.18-.04-.22-.12-.05-.49.14-.47.29.02.17.47-.02.51-.07Z"/>
        </g>
      </g>
    </g>
    <path class="st13" d="M82.61,32.77c.75-.96,2.89-1.06,4.07-.16,1.79,1.36,1.56,5.13-.41,7.01-1.32,1.26-3.85,2.06-5.33.83-1.08-.9-1.46-2.76-.81-3.76.46-.71,1.12-.49,1.73-1.33.74-1.01.16-1.85.75-2.59Z"/>
  </g>
  <g>
    <g>
      <g>
        <path class="st10" d="M97.44,38.75c.01,1.55.53,3.08.55,4.63,0,.72-.45,1.3-.96,1.18-.82-.21-1.62.15-2.06.93-.27.48-.36,1.02-.37,1.5-.02.66.39,1.22.87,1.23l4.81.1c.47,0,.85-.51.85-1.17-.03-2.79-.56-5.57-.58-8.36-1.03-.01-2.06-.02-3.1-.03Z"/>
        <path class="st19" d="M106.18,38.84c-.06,1.55.55,3.06.49,4.61-.03.72-.51,1.32-1.02,1.22-.82-.16-1.63.24-2.11,1.04-.29.49-.41,1.04-.44,1.52-.05.66.33,1.19.81,1.18l4.83-.16c.48-.02.88-.56.91-1.21.11-2.79-.46-5.55-.35-8.33-1.04.04-2.07.09-3.11.13Z"/>
      </g>
      <g>
        <path class="st17" d="M103.84,6.24c3.69.09,9.87.83,12.64,3.44,1.08,1.02,1.34,2.01,2.15,3.04.81,1.04,1.51,1.64,2.2,2.86,6.28,11.16-3.78,27.42-17.1,25.63-1.37-.18-2.83-.46-4.22-.68-3.24-.52-8.75-3.38-10.41-6.26-1.33-2.3-3.1-7.6-3.19-10.19-.13-3.9,2.32-10.34,5.11-13.09.81-.79,1.36-.88,2.22-1.39,3.58-2.15,6.19-3.47,10.59-3.37Z"/>
        <g>
          <path class="st4" d="M101.72,28.23c.7-.35,1.28.65.64,1.1,0,0-.01,0-.02.01-.98.68-2.99,1.39-4.18,1.24-.61-.08-2.73-.97-1.92-1.76.48-.47,1.19.25,1.7.38.86.22,1.65.05,2.45-.26.46-.18.89-.48,1.33-.71Z"/>
          <path class="st18" d="M90.8,31.66c.81-.29,1.02.7,1.39,1.21.27.37,1.17,1.13,1.07,1.53-.27.64-.94.33-1.35,0-.43-.36-2.09-2.39-1.11-2.74Z"/>
          <path class="st18" d="M111.15,36.06c.65-.18.95.4.53.96-.34.46-2.54,2.43-2.73,1.05-.09-.67.59-.72,1-1.02.31-.23.89-.91,1.2-.99Z"/>
          <path class="st18" d="M99.08,35.22c.65-.19,1.25.9,1.54,1.42.28.49.56,1.32-.33,1.23-.36-.04-1.59-1.8-1.58-2.13,0-.24.13-.44.37-.51Z"/>
          <path class="st18" d="M117.53,18.79c.88-.2.92,1.72.87,2.24-.08.86-1,.57-1.18-.18-.11-.5-.33-1.91.31-2.06Z"/>
          <path class="st18" d="M91.74,16.58c.47-.16.85.08.84.57,0,.09-.36,1.65-.4,1.75-.19.44-.8.55-1.02.16-.24-.44.06-2.3.58-2.48Z"/>
          <path class="st18" d="M105.36,31.87c.29-.08,1.72.17,2,.31.46.23.49.82.02,1.06-.35.18-1.95-.19-2.19-.56-.2-.31-.23-.7.17-.81Z"/>
          <path class="st18" d="M107.92,10.93c-.24.26-1.93.42-2.15.03-.47-.87,1.34-1.37,2.02-.87.24.17.3.65.13.84Z"/>
          <path class="st18" d="M92.66,26.83c-.51-.44-1.32-2.17-.04-1.84.3.08.98.96,1.03,1.26.12.65-.49,1-.99.58Z"/>
          <path class="st18" d="M113.25,14.22c.95-.37,1.53,1.8.89,2.02-.94.32-1.35-1.84-.89-2.02Z"/>
          <path class="st18" d="M119.43,29.32c.49.45-.15,1.06-.33,1.38-.16.29-.34,1.16-.84.87-.23-.14.04-.75.07-.98.06-.39-.04-.82.26-1.18.2-.24.59-.31.83-.09Z"/>
          <path class="st18" d="M111.31,25.57c.36-.13.78,0,.84.41.08.53-1.09,1.81-1.7,1.55-.67-.28.59-1.86.86-1.96Z"/>
          <g>
            <g>
              <path class="st4" d="M102.35,26.32c-.45.07-.82-.15-.96-.23-2.98-1.78-1.21-12.27,1.88-12.78.45-.07.79.09.87.13,2.77,1.4,1.08,12.46-1.8,12.88Z"/>
              <g class="st1">
                <path class="st22" d="M102.34,18.2c-.43-.27-.92-.17-1.03-.15-1.39.28-2.43,2.55-1.86,4.41.32,1.05,1.27,2.37,2.06,2.24,1.48-.25,2.42-5.48.83-6.5Z"/>
              </g>
            </g>
            <g>
              <path class="st4" d="M96.46,26.01c-.45.07-.82-.15-.96-.23-2.99-1.79-1.14-12.31,1.97-12.81.46-.07.8.09.88.13,2.78,1.4,1.02,12.49-1.88,12.91Z"/>
              <g class="st8">
                <path class="st22" d="M96.55,17.73c-.43-.27-.93-.17-1.04-.15-1.4.28-2.46,2.55-1.9,4.42.31,1.05,1.26,2.38,2.06,2.24,1.49-.25,2.47-5.5.87-6.52Z"/>
              </g>
            </g>
          </g>
        </g>
      </g>
      <g>
        <path class="st14" d="M109.22,3.05c-.48-.73-.03-1.86.74-2.23.06-.03.7-.33,1.27.04.6.39.57,1.17.56,1.26-.04.71-.62,1.47-1.4,1.51-.44.02-.92-.19-1.17-.58Z"/>
        <path class="st14" d="M92.5,4.96c-.33.55-1.03,1.69-.61,2.8.45,1.16,1.84,1.56,2.14,1.64,2.41-.43,5.42-.76,8.88-.65,4.26.13,7.86.88,10.56,1.66.08.02,1.82.45,2.9-.67.95-.99.47-2.96-.18-4.07-1.66-2.87-5.95-2.63-6.14-2.61-.94-.71-2.48-1.69-4.56-2.22-5.2-1.33-10.96.82-12.99,4.12Z"/>
      </g>
      <path class="st14" d="M91.79,33.61c.21,1.27.37,2.91.25,4.81-.05.8-.14,1.54-.25,2.2.34.08,1.05.25,1.94.44,9.45,1.95,18.4,1.17,18.49.03,0,0,0-.02,0-.04,0-.12,0-.41-.14-1.58h0c0-.74-.09-1.29-.11-1.38-.05-.36-.03-1.28.24-3.54-2.62.24-4.88.31-6.65.31-.95,0-4.4-.02-8.97-.55-1.95-.23-3.59-.49-4.8-.7Z"/>
      <path class="st14" d="M87.98,32.61c5.42,1.42,9.79,1.68,12.76,1.66,2.99-.02,4.85-.32,12.11-.73,2.96-.17,5.37-.27,6.92-.33-.21.36-.42.71-.63,1.07-1.38.02-3.53.07-6.15.22-3.72.22-6.38.54-7.12.62-3.18.34-8.41.3-17.25-1.51-.21-.33-.42-.67-.63-1Z"/>
    </g>
    <path class="st13" d="M116.32,32.26c1.08-.68,3.22-.02,4.07,1.27,1.29,1.97-.27,5.61-2.87,6.77-1.75.78-4.52.68-5.55-1.06-.75-1.27-.47-3.24.53-4,.7-.54,1.28-.09,2.18-.7,1.08-.73.81-1.77,1.65-2.29Z"/>
  </g>
</svg>