<?xml version="1.0" encoding="UTF-8"?>
<svg id="_圖層_1" data-name="圖層_1" xmlns="http://www.w3.org/2000/svg" version="1.1" xmlns:xlink="http://www.w3.org/1999/xlink" viewBox="0 0 105.82 137.22">
  <!-- Generator: Adobe Illustrator 30.5.1, SVG Export Plug-In . SVG Version: 2.1.4 Build 3)  -->
  <defs>
    <style>
      .st0 {
        fill: #bf323c;
      }

      .st1 {
        fill: #fff;
      }

      .st2 {
        clip-path: url(#clippath-1);
      }

      .st3 {
        fill: #f18d23;
      }

      .st4 {
        fill: #f9ce8a;
      }

      .st5 {
        fill: #c8731c;
      }

      .st6 {
        clip-path: url(#clippath);
      }
    </style>
    <clipPath id="clippath">
      <path class="st1" d="M51.3,66.32c-1.18.15-2.12-.43-2.49-.66-7.64-4.86-2.23-32.9,5.99-34.17,1.21-.19,2.1.27,2.3.37,7.23,3.88,1.76,33.48-5.81,34.45Z"/>
    </clipPath>
    <clipPath id="clippath-1">
      <path class="st1" d="M35.97,65.2c-1.18.15-2.12-.43-2.49-.66-7.64-4.86-2.23-32.9,5.99-34.17,1.21-.19,2.1.27,2.3.37,7.23,3.88,1.76,33.48-5.81,34.45Z"/>
    </clipPath>
  </defs>
  <g>
    <path class="st5" d="M27.83,104.33c-2.29,3.44-4.57,6.88-6.86,10.33-1.06,1.6-3.34,1.98-4.75.67-2.24-2.09-5.25-2.89-7.78-2.05-1.55.51-2.65,1.54-3.41,2.57-1.05,1.43-.63,3.45.85,4.43l14.75,9.79c1.45.96,3.41.57,4.38-.88,4.12-6.21,8.24-12.41,12.36-18.62-3.18-2.08-6.36-4.16-9.55-6.24Z"/>
    <path class="st5" d="M56.85,111.62c.08,4.13.16,8.26.24,12.39.04,1.92-1.62,3.53-3.52,3.25-3.03-.45-5.96.61-7.57,2.74-.98,1.3-1.3,2.77-1.34,4.05-.05,1.77,1.45,3.2,3.22,3.16l17.7-.34c1.74-.03,3.13-1.47,3.1-3.22-.14-7.45-.29-14.9-.43-22.34-3.8.1-7.6.2-11.4.3Z"/>
  </g>
  <g>
    <path class="st3" d="M49.37,17.08c10.84-.32,29.09.94,37.42,8.43,3.24,2.91,4.06,5.87,6.51,8.86,2.45,3,4.53,4.7,6.61,8.28,18.78,32.28-9.96,80.05-47.87,76.19-3.86-.39-8.01-1.03-11.91-1.53-9.11-1.16-24.81-8.64-29.79-16.57C6.36,94.39.68,79.53.09,72.14c-.9-11.24,5.15-30.36,12.73-38.85,2.21-2.47,3.79-2.8,6.19-4.46,10.08-6.98,17.52-11.35,30.36-11.74Z"/>
    <path class="st3" d="M69.52,27.4c.56-.53.5-1.98-.14-2.55-1.85-1.64-7.26-.49-6.13,2.2.51,1.21,5.51,1.08,6.27.35ZM84.16,38.3c-1.4.44-.84,6.92,1.99,6.18,1.95-.51.91-7.1-1.99-6.18ZM21.4,40.76c-1.52.42-2.8,5.79-2.22,7.11.52,1.17,2.29.99,2.92-.25.15-.29,1.53-4.75,1.56-5.02.13-1.42-.88-2.22-2.26-1.84ZM95.27,52.76c-1.91.3-1.73,4.5-1.55,6,.27,2.25,2.87,3.3,3.38.79.31-1.53.82-7.2-1.83-6.79ZM27.07,69.88c1.31,1.33,3.11.45,2.93-1.44-.08-.86-1.79-3.54-2.62-3.83-3.54-1.24-1.65,3.9-.31,5.27ZM75.15,71.19c-.8.22-4.91,4.5-3.05,5.47,1.68.88,5.41-2.54,5.35-4.1-.05-1.19-1.23-1.67-2.3-1.37ZM97.5,83.94c-.64-.7-1.79-.59-2.44.06-.98.98-.84,2.21-1.13,3.33-.17.66-1.15,2.35-.52,2.8,1.34.97,2.15-1.51,2.7-2.3.62-.89,2.66-2.48,1.38-3.9ZM15.37,83.92c-2.83.76,1.35,6.86,2.48,7.98,1.05,1.05,2.86,2.07,3.76.34.38-1.11-1.97-3.46-2.63-4.57-.92-1.53-1.27-4.38-3.61-3.75ZM56.34,87.9c-1.17.23-1.2,1.34-.71,2.27.59,1.1,5.02,2.52,6.07,2.11,1.39-.55,1.47-2.25.24-3.01-.76-.47-4.74-1.52-5.6-1.36ZM37.73,95.91c-.68.14-1.09.68-1.16,1.35-.1.94,2.93,6.18,3.91,6.38,2.47.48,1.9-1.94,1.23-3.37-.7-1.52-2.1-4.73-3.98-4.36ZM71.69,101.2c-.89.17-2.74,1.94-3.69,2.52-1.23.74-3.18.72-3.11,2.63.15,3.92,6.94-1.08,8.05-2.29,1.35-1.48.66-3.21-1.25-2.86Z"/>
    <g>
      <path class="st1" d="M50.99,70.77c1.34-.31,2.37,1.29,1.48,2.34-.35.41-.83.76-1.44,1.17-2.6,1.72-7.87,3.49-10.96,3.01-1.58-.25-7-2.69-4.86-4.72,1.27-1.2,3.06.72,4.38,1.09,2.22.62,4.28.22,6.38-.55,1.71-.63,3.28-1.94,5.02-2.34Z"/>
      <path class="st4" d="M15.37,83.92c2.34-.63,2.69,2.22,3.61,3.75.67,1.11,3.01,3.45,2.63,4.57-.9,1.73-2.71.71-3.76-.34-1.13-1.12-5.31-7.22-2.48-7.98Z"/>
      <path class="st4" d="M71.69,101.2c1.9-.35,2.59,1.38,1.25,2.86-1.1,1.21-7.9,6.21-8.05,2.29-.07-1.91,1.88-1.89,3.11-2.63.95-.57,2.8-2.35,3.69-2.52Z"/>
      <path class="st4" d="M37.73,95.91c1.89-.37,3.28,2.84,3.98,4.36.66,1.43,1.24,3.86-1.23,3.37-.99-.19-4.01-5.44-3.91-6.38.07-.68.48-1.22,1.16-1.35Z"/>
      <path class="st4" d="M95.27,52.76c2.65-.41,2.14,5.26,1.83,6.79-.51,2.51-3.12,1.46-3.38-.79-.18-1.49-.36-5.7,1.55-6Z"/>
      <path class="st4" d="M71.55,53.32c2.17-1.59,4.32,3.68,4.76,5.18.71,2.46-2.09,2.74-3.37.86-.84-1.24-2.95-4.89-1.39-6.04Z"/>
      <path class="st4" d="M21.4,40.76c1.38-.38,2.39.42,2.26,1.84-.03.28-1.41,4.74-1.56,5.02-.63,1.24-2.4,1.42-2.92.25-.59-1.32.7-6.7,2.22-7.11Z"/>
      <path class="st4" d="M56.34,87.9c.86-.17,4.84.89,5.6,1.36,1.24.77,1.16,2.47-.24,3.01-1.05.41-5.48-1-6.07-2.11-.5-.93-.47-2.04.71-2.27Z"/>
      <path class="st4" d="M69.52,27.4c-.76.73-5.76.87-6.27-.35-1.13-2.69,4.29-3.84,6.13-2.2.64.57.7,2.01.14,2.55Z"/>
      <path class="st4" d="M16.87,66.83c-1.35-1.37-3.24-6.51.31-5.27.83.29,2.54,2.97,2.62,3.83.18,1.89-1.62,2.76-2.93,1.44Z"/>
      <path class="st4" d="M84.16,38.3c2.9-.91,3.94,5.68,1.99,6.18-2.83.74-3.39-5.74-1.99-6.18Z"/>
      <path class="st4" d="M97.5,83.94c1.28,1.42-.76,3.01-1.38,3.9-.55.78-1.35,3.26-2.7,2.3-.63-.45.34-2.14.52-2.8.29-1.12.15-2.36,1.13-3.33.65-.65,1.8-.77,2.44-.06Z"/>
      <path class="st4" d="M75.15,71.19c1.07-.3,2.26.18,2.3,1.37.06,1.56-3.67,4.98-5.35,4.1-1.86-.97,2.25-5.25,3.05-5.47Z"/>
      <g>
        <g>
          <path class="st1" d="M51.3,66.32c-1.18.15-2.12-.43-2.49-.66-7.64-4.86-2.23-32.9,5.99-34.17,1.21-.19,2.1.27,2.3.37,7.23,3.88,1.76,33.48-5.81,34.45Z"/>
          <g class="st6">
            <path class="st3" d="M59.36,43.03c-.4-.18-1.32-.53-2.58-.56-4.54-.12-9.04,4-8.48,6.2.21.83,1.18,1.56,2.09,1.58,2.08.04,2.62-3.63,5.32-4.04,1.09-.16,2.27.25,3.03.89,1.73,1.44,1.01,3.73,2.4,4.36.83.37,2.08.01,2.6-.74,1.19-1.71-.93-6.17-4.39-7.69Z"/>
          </g>
        </g>
        <g>
          <path class="st1" d="M35.97,65.2c-1.18.15-2.12-.43-2.49-.66-7.64-4.86-2.23-32.9,5.99-34.17,1.21-.19,2.1.27,2.3.37,7.23,3.88,1.76,33.48-5.81,34.45Z"/>
          <g class="st2">
            <path class="st3" d="M43.11,39.95c-1.2-.57-2.46-.12-2.74-.02-3.53,1.26-5.46,7.65-3.37,12.38,1.18,2.66,4.08,5.8,6.1,5.17,3.75-1.18,4.5-15.4.01-17.53Z"/>
          </g>
        </g>
      </g>
    </g>
  </g>
  <g>
    <path class="st0" d="M78.37,10.93c-.9-2.15.85-4.9,3.02-5.49.16-.04,2.01-.51,3.32.72,1.4,1.31.92,3.35.86,3.59-.46,1.84-2.34,3.56-4.42,3.27-1.17-.16-2.31-.95-2.79-2.09Z"/>
    <path class="st0" d="M33.53,7.74c-1.15,1.27-3.54,3.93-2.97,7.06.6,3.28,4.06,5,4.81,5.35,6.54.05,14.61.67,23.64,2.65,11.14,2.44,20.2,6.17,26.91,9.55.19.09,4.57,2.06,7.95-.34,2.99-2.13,2.67-7.54,1.53-10.78-2.94-8.34-14.35-9.82-14.86-9.88-2.13-2.33-5.69-5.64-10.89-8.07C56.67-2.77,40.46.04,33.53,7.74Z"/>
  </g>
</svg>